<?xml version="1.0" encoding="UTF-8" standalone="no"?>
<!-- Created with Inkscape (http://www.inkscape.org/) -->

<svg
   xmlns:dc="http://purl.org/dc/elements/1.1/"
   xmlns:cc="http://creativecommons.org/ns#"
   xmlns:rdf="http://www.w3.org/1999/02/22-rdf-syntax-ns#"
   xmlns:svg="http://www.w3.org/2000/svg"
   xmlns="http://www.w3.org/2000/svg"
   xmlns:xlink="http://www.w3.org/1999/xlink"
   xmlns:sodipodi="http://sodipodi.sourceforge.net/DTD/sodipodi-0.dtd"
   xmlns:inkscape="http://www.inkscape.org/namespaces/inkscape"
   width="420.45386mm"
   height="356.15823mm"
   viewBox="0 0 1489.7971 1261.978"
   id="svg11050"
   version="1.1"
   inkscape:version="0.91 r13725"
   sodipodi:docname="fishbowlfish.svg">
  <defs
     id="defs11052">
    <linearGradient
       inkscape:collect="always"
       id="linearGradient11948">
      <stop
         style="stop-color:#5485e2;stop-opacity:1;"
         offset="0"
         id="stop11950" />
      <stop
         style="stop-color:#5485e2;stop-opacity:0;"
         offset="1"
         id="stop11952" />
    </linearGradient>
    <linearGradient
       inkscape:collect="always"
       x1="30.976"
       y1="260.5"
       x2="160.53"
       gradientUnits="userSpaceOnUse"
       y2="237.97"
       id="linearGradient10632">
      <stop
         offset="0"
         style="stop-color:#ebe9ff"
         id="stop10628" />
      <stop
         offset="1"
         style="stop-color:#ebe9ff;stop-opacity:0"
         id="stop10630" />
    </linearGradient>
    <radialGradient
       inkscape:collect="always"
       xlink:href="#linearGradient11948"
       id="radialGradient11954"
       cx="403.10251"
       cy="464.16159"
       fx="403.10251"
       fy="464.16159"
       r="104.88892"
       gradientTransform="matrix(1,0,0,0.15686273,0,391.35194)"
       gradientUnits="userSpaceOnUse" />
    <filter
       inkscape:collect="always"
       style="color-interpolation-filters:sRGB"
       id="filter11964"
       x="-0.067455284"
       width="1.1349106"
       y="-0.057833329"
       height="1.1156667">
      <feGaussianBlur
         inkscape:collect="always"
         stdDeviation="2.3750792"
         id="feGaussianBlur11966" />
    </filter>
  </defs>
  <sodipodi:namedview
     id="base"
     pagecolor="#ffffff"
     bordercolor="#666666"
     borderopacity="1.0"
     inkscape:pageopacity="0.0"
     inkscape:pageshadow="2"
     inkscape:zoom="0.235"
     inkscape:cx="2520.9356"
     inkscape:cy="711.16736"
     inkscape:document-units="px"
     inkscape:current-layer="g11975"
     showgrid="false"
     inkscape:snap-global="false"
     inkscape:window-width="1916"
     inkscape:window-height="1035"
     inkscape:window-x="4"
     inkscape:window-y="1"
     inkscape:window-maximized="1"
     fit-margin-top="0"
     fit-margin-left="0"
     fit-margin-right="0"
     fit-margin-bottom="0" />
  <metadata
     id="metadata11055">
    <rdf:RDF>
      <cc:Work
         rdf:about="">
        <dc:format>image/svg+xml</dc:format>
        <dc:type
           rdf:resource="http://purl.org/dc/dcmitype/StillImage" />
        <dc:title></dc:title>
      </cc:Work>
    </rdf:RDF>
  </metadata>
  <g
     inkscape:label="Layer 1"
     inkscape:groupmode="layer"
     id="layer1"
     transform="translate(2105.5377,227.87865)">
    <g
       id="g11975"
       transform="translate(681.38951,81.22524)">
      <g
         id="g12021"
         transform="translate(-2076.5957,-25.531915)">
        <g
           transform="matrix(0.95681358,0.2907022,-0.2907022,0.95681358,1540.8521,432.19126)"
           id="g12016">
          <g
             transform="matrix(1.4525828,0,0,1.2029308,-1891.5597,-1073.8711)"
             id="g11724">
            <path
               style="fill:#db9446;fill-opacity:1;fill-rule:evenodd;stroke:none;stroke-width:1px;stroke-linecap:butt;stroke-linejoin:miter;stroke-opacity:1"
               d="m 222.02045,1224.2146 -26.68515,9.6066 -28.81996,17.0785 -20.28071,-10.674 -21.34812,0 -10.67406,5.337 -10.67406,30.9548 -7.471847,12.8088 2.134812,11.7415 8.539245,-2.1348 17.0785,-7.4718 10.67406,2.1348 -3.20222,13.8762 -4.26962,5.3371 -4.26963,10.674 0,11.7415 0,6.4044 -21.34812,17.0785 -17.078493,20.2808 -8.539249,29.8873 -3.202218,54.4377 7.471842,23.483 16.011091,-2.1349 21.348117,-22.4155 25.61775,29.8874 34.15699,14.9437 22.41553,-44.8311 16.01109,-40.5614 -14.94369,-14.9437 -23.48293,-13.8763 -20.28071,-39.494 10.67406,-16.0111 14.94368,-1.0674 1.06741,24.5503 13.87628,4.2697 11.74146,-3.2022 11.74147,-7.4719 0,-38.4266 -1.06741,-25.6177 11.74147,-19.2134 0,-25.6177 1.06741,-8.5393 z"
               id="path11714"
               inkscape:connector-curvature="0" />
            <path
               style="fill:#000000"
               d="m 167.44854,1511.8755 c -1.65,-0.4198 -4.89139,-0.8166 -7.20309,-0.8817 -3.5223,-0.099 -5.0613,-0.8878 -9.5,-4.8683 -6.4667,-5.799 -12.3518,-11.8704 -16.1454,-16.6563 -1.5667,-1.9765 -3.606,-3.5937 -4.5319,-3.5937 -1.099,0 -1.7595,-0.9195 -1.9026,-2.6489 -0.2472,-2.9863 -2.0197,-5.5911 -3.2762,-4.8145 -0.7877,0.4869 -2.9232,-5.5649 -2.9352,-8.318 0,-0.7047 -0.6806,-1.5404 -1.5056,-1.857 -0.825,-0.3165 -1.5,-1.2809 -1.5,-2.1429 0,-3.5175 -4.9336,3.2381 -8.6548,11.851 -2.9491,6.8258 -4.3002,8.9035 -5.7976,8.9151 -1.0738,0.01 -3.4622,1.4777 -5.307505,3.2652 -2.9966,2.9027 -3.9543,3.244 -8.9616,3.194 -5.299,-0.053 -5.811,-0.2864 -9.3338,-4.2561 -2.1249,-2.3944 -3.925,-5.5947 -4.1872,-7.444 -0.8315,-5.8654 -2.9016,-13.1773 -4.863,-17.1768 -1.3074,-2.666 -1.6011,-4.2605 -0.9116,-4.95 1.3967,-1.3967 1.2833,-7.9509 -0.1627,-9.3969 -0.9064,-0.9064 -0.8791,-1.7417 0.118,-3.6046 0.7137,-1.3337 1.043,-2.837 0.7316,-3.3408 -0.877,-1.4191 1.3182,-21.4759 2.6474,-24.1884 0.8847,-1.8054 0.8934,-2.5109 0.035,-2.7994 -1.3439,-0.4515 -0.6422,-8.0781 0.9258,-10.0612 0.554,-0.7007 0.7362,-1.5453 0.4048,-1.8767 -0.3315,-0.3315 0.031,-1.8287 0.8062,-3.3271 1.0053,-1.9439 1.1008,-3.0326 0.3334,-3.8 -0.7675,-0.7674 -0.4663,-2.0615 1.0512,-4.5168 1.1697,-1.8927 2.1268,-4.2232 2.1268,-5.1789 0,-0.9556 1.125,-3.0746 2.5,-4.7087 1.375,-1.634 2.5,-3.669 2.5,-4.5222 0,-1.9449 11.2086,-15.307 25.250005,-30.1013 9.725,-10.2464 10.75,-11.6823 10.75,-15.0602 0,-2.0536 0.5466,-4.2804 1.2146,-4.9484 0.668,-0.6681 1.4703,-3.8896 1.7829,-7.1589 0.5196,-5.4348 0.394,-5.9693 -1.4646,-6.2355 -1.9113,-0.2737 -1.8733,-0.4322 0.6363,-2.6512 1.4681,-1.298 2.9392,-3.4355 3.2691,-4.75 0.3299,-1.3144 1.0412,-2.3899 1.5808,-2.3899 0.5395,0 0.9809,-1.2021 0.9809,-2.6712 0,-1.4692 0.7544,-3.5049 1.6764,-4.5237 1.0935,-1.2083 1.336,-2.1927 0.6974,-2.8313 -1.4444,-1.4443 -11.6812,0.6508 -19.3738,3.9652 -6.9487,2.9939 -15.934705,5.4597 -16.787805,4.6066 -0.2853,-0.2853 -0.6143,-2.0933 -0.7311,-4.0179 -0.1169,-1.9245 -0.6857,-4.0693 -1.2641,-4.7662 -0.7492,-0.9028 -0.644,-1.8246 0.3657,-3.2054 0.7795,-1.0661 1.4173,-2.757 1.4173,-3.7575 0,-1.0005 1.485,-3.952 3.2999,-6.5588 1.814905,-2.6069 3.914105,-6.3148 4.664705,-8.2398 0.7506,-1.925 1.9079,-4.175 2.5716,-5 2.0432,-2.5396 3.7838,-6.3158 2.5636,-5.5616 -1.575,0.9733 -1.2989,-1.5912 0.4151,-3.8563 1.0621,-1.4038 1.1601,-2.2688 0.3654,-3.2264 -0.8171,-0.9845 -0.318,-2.2779 2.0169,-5.2259 1.7065,-2.1547 3.1028,-4.6403 3.1028,-5.5237 0,-0.8833 0.6206,-1.6061 1.3792,-1.6061 0.7585,0 3.9306,-1.1681 7.049,-2.5958 7.0634,-3.2337 18.3134,-3.77 23.0718,-1.0999 1.65,0.9259 3.6902,1.6862 4.5337,1.6896 0.8436,0 3.9936,1.597 7,3.5415 6.3652,4.1168 7.7424,4.0239 16.11699,-1.0869 3.1079,-1.8967 6.1002,-3.4485 6.6495,-3.4485 0.5494,0 3.4065,-1.6259 6.3493,-3.6131 8.9781,-6.0628 19.9839,-11.0813 26.852,-12.2442 11.3205,-1.9167 21.9985,1.1051 21.9985,6.2254 0,1.2771 0.8527,3.0936 1.8949,4.0368 2.13472,1.9319 3.31275,6.3487 1.92243,7.208 -0.5225,0.3229 -0.41485,1.1671 0.25115,1.9696 0.89859,1.0828 0.79979,2.1753 -0.43134,4.7697 -3.06064,6.4498 -3.40674,23.8595 -0.43788,22.0247 0.76416,-0.4723 0.91951,-0.1288 0.47068,1.0409 -0.36847,0.9602 -0.66994,2.3537 -0.66994,3.0966 0,0.743 -0.7875,1.6046 -1.75,1.9148 -0.9625,0.3102 -4.382,5.0146 -7.5989,10.4542 l -5.8489,9.8902 -0.242,26.3632 c -0.1534,16.7211 -0.6693,27.6849 -1.4105,29.9771 -1.421,4.3947 -11.117,13.8861 -14.1855,13.8861 -1.1855,0 -3.4114,0.8943 -4.9465,1.9874 l -2.791,1.9874 -0.5521,-2.1112 c -0.5652,-2.1613 -0.5643,-2.1613 -7.3488,-0.2746 -1.7898,0.4977 -2.2319,0.1399 -2.5,-2.0233 -0.4451,-3.5903 -2.0072,-3.5 -3.9247,0.2268 l -1.599,3.1075 -2.2593,-3.0559 c -1.8556,-2.5098 -2.2363,-4.2432 -2.1308,-9.7 0.071,-3.6542 0.5417,-8.4192 1.0468,-10.5889 0.5052,-2.1696 0.6945,-4.3071 0.4208,-4.75 -0.7206,-1.1659 -5.1477,-0.9894 -5.9047,0.2355 -0.3538,0.5724 -1.5369,0.757 -2.6292,0.4103 -1.4465,-0.459 -2.1255,-0.097 -2.4995,1.3331 -0.2824,1.0799 -1.8258,2.9337 -3.4298,4.1196 -3.20889,2.3724 -3.75749,4.5596 -1.37329,5.4745 1.19449,0.4584 1.30749,1.0325 0.5,2.5412 -2.5611,4.7855 -0.4341,12.5042 5.13309,18.6276 1.8857,2.0739 3.1884,4.4772 3.0109,5.5544 -0.1958,1.1884 0.2718,1.8986 1.25,1.8986 2.3446,0 5.1701,3.2861 5.8808,6.8395 1.1437,5.7184 3.3308,7.7968 10.6976,10.1655 3.8128,1.226 7.619,1.9655 8.4584,1.6434 1.6847,-0.6465 2.1154,0.8694 0.5261,1.8516 -1.7864,1.1041 -1.0551,2.6523 0.952,2.0153 1.449,-0.46 3.5079,0.8109 7.9913,4.9326 3.3216,3.0537 6.5198,5.5521 7.107,5.5521 0.5873,0 0.7896,0.45 0.4497,1 -0.3399,0.55 -0.076,1 0.5856,1 1.6496,0 0.5971,10.3224 -2.0145,19.7582 -1.1049,3.992 -2.8427,10.292 -3.8618,14 -1.2192,4.4364 -3.5384,9.1355 -6.782,13.7418 -7.1029,10.0869 -9.25,14.991 -11.9623,27.3218 -3.3763,15.3494 -13.0893,23.2001 -24.965,20.1782 z m 12.201,-16.5031 c 2.6586,-1.8622 4.6978,-7.753 3.9603,-11.4406 -0.3041,-1.5205 -0.2181,-3.1677 0.1911,-3.6605 1.5747,-1.8958 4.0343,-11.1861 4.6463,-17.5494 0.3519,-3.6595 1.2694,-7.4845 2.0388,-8.5 0.7694,-1.0155 1.4132,-2.8589 1.4307,-4.0964 0.018,-1.2517 0.6558,-2.25 1.4382,-2.25 0.876,0 1.2239,-0.6976 0.9226,-1.8498 -0.3113,-1.1905 0.9623,-3.5206 3.5735,-6.5375 5.5501,-6.4127 9.2114,-12.914 9.3145,-16.5398 0.1653,-5.8147 -8.2469,-15.1183 -14.9555,-16.5403 -1.7812,-0.3776 -3.4953,-1.1018 -3.809,-1.6095 -0.3138,-0.5077 -1.4678,-0.9231 -2.5646,-0.9231 -1.0967,0 -3.6496,-1.125 -5.6731,-2.5 -2.0235,-1.375 -3.9974,-2.5 -4.3866,-2.5 -0.3891,0 -0.858,1.6875 -1.0419,3.75 l -0.3345,3.75 -1.3864,-2.75 c -1.107,-2.1958 -1.145,-3.2799 -0.1885,-5.3792 1.3372,-2.9349 0.7226,-4.3703 -1.0936,-2.5541 -1.9007,1.9007 -2.5173,1.4155 -3.2615,-2.5667 -0.3854,-2.0625 -1.2033,-4.3579 -1.8175,-5.1009 -0.6141,-0.743 -1.2123,-2.0028 -1.32929,-2.7997 -0.5335,-3.6349 -3.9218,-5.4026 -6.1276,-3.1968 -0.8701,0.8701 -0.674,1.7609 0.8,3.6348 1.5974,2.0308 1.9526,4.0671 1.9526,11.1938 0,5.9124 0.5044,9.7225 1.5697,11.858 1.4871,2.9811 1.2041,7.1608 -0.4849,7.1608 -0.4292,0 -0.8217,-1.2375 -0.8721,-2.75 -0.05,-1.5125 -2.6414,-8.7703 -5.7578,-16.1285 -3.3343,-7.8726 -6.1976,-16.4384 -6.9574,-20.8135 -0.7101,-4.0892 -1.5841,-7.7279 -1.9422,-8.0861 -1.2166,-1.2165 -4.0532,1.4799 -4.5557,4.3306 l -0.5004,2.8386 -1.2496,-2.7426 c -1.6588,-3.6407 -1.5773,-6.1317 0.2504,-7.6485 1.045,-0.8672 1.5,-3.1699 1.5,-7.5905 0,-5.884 -0.2001,-6.4572 -2.75,-7.8795 l -2.75,-1.534 3.9605,0.252 c 3.3072,0.2104 4.056,0.6644 4.5396,2.752 0.4145,1.7898 1.349,2.5899 3.2894,2.8164 2.4052,0.2808 2.7105,-0.015 2.7105,-2.6275 0,-1.6192 -0.6967,-3.5222 -1.5483,-4.2289 -1.7846,-1.4811 -1.5165,-5.586 0.3399,-5.204 0.6843,0.1407 2.8111,-0.3988 4.7263,-1.199 3.6159,-1.5108 4.5437,-4.0954 2.2821,-6.357 -0.9333,-0.9333 -0.8222,-1.2 0.5,-1.2 0.935,0 1.7,0.4342 1.7,0.9648 0,0.5307 0.9682,1.483 2.1516,2.1164 1.8355,0.9823 2.0559,0.914 1.5,-0.4649 -0.3584,-0.8889 -0.9418,-2.3358 -1.2966,-3.2153 -0.5623,-1.3941 -0.3748,-1.4303 1.4629,-0.2827 1.72679,1.0785 2.97069,1.0856 6.88199,0.04 2.6259,-0.7023 5.4905,-1.9251 6.3659,-2.7173 0.8754,-0.7922 2.7781,-1.4404 4.2281,-1.4404 3.0279,0 9.0828,-4.894 11.2572,-9.0988 2.3376,-4.5206 1.3777,-12.9013 -1.4777,-12.9013 -0.471,0 -4.5857,3.15 -9.1438,7 -4.5582,3.85 -8.8821,7 -9.6086,7 -0.7265,0 -1.6585,-0.018 -2.071,-0.039 -0.4125,-0.022 -0.975,1.4409 -1.25,3.25 -0.4364,2.8711 -0.9216,3.3298 -3.81529,3.6076 -3.0752,0.2951 -6.1847,-1.1027 -6.1847,-2.7802 0,-0.3944 1.125,-1.2296 2.5,-1.8561 1.375,-0.6265 2.5,-1.7334 2.5,-2.4597 0,-0.7263 1.57499,-1.89 3.49999,-2.5861 4.0881,-1.4783 4.2095,-1.9645 1.386,-5.554 -3.0359,-3.8595 -1.5798,-4.335 3.1781,-1.0377 3.185,2.2072 4.4727,2.6067 5.7681,1.7895 1.9647,-1.2393 2.1951,-3.4915 0.4178,-4.084 -0.6875,-0.2292 -1.25,0.2958 -1.25,1.1667 0,2.8098 -2.8583,1.6857 -5.464,-2.1488 -1.3948,-2.0527 -2.536,-4.333 -2.536,-5.0674 0,-0.95 -0.6492,-1.1094 -2.25,-0.5525 -1.2375,0.4306 -3.48749,0.7984 -4.99999,0.8174 -1.9392,0.024 -2.75,0.5506 -2.75,1.7846 0,3.1668 -1.8954,1.8247 -2.5805,-1.8272 -0.8426,-4.4918 0.8704,-12.98 2.0026,-9.9228 2.2189,5.992 2.6104,6.5 5.0094,6.5 1.3609,0 3.58639,-0.5067 4.94559,-1.1259 2.0334,-0.9265 3.2816,-0.7336 7.047,1.0892 2.5167,1.2183 4.5759,2.8233 4.5759,3.5666 0,1.1152 0.4808,1.1007 2.75,-0.083 1.5125,-0.789 4.0016,-1.4373 5.5314,-1.4407 1.7677,0 2.9831,-0.6439 3.3348,-1.7561 0.3043,-0.9625 1.2606,-3.4421 2.1251,-5.5102 1.7224,-4.121 1.1793,-5.7488 -1.2464,-3.7356 -1.3007,1.0795 -1.9599,0.9075 -4.0512,-1.0571 -2.4184,-2.272 -2.589,-2.2925 -5.375,-0.6468 -3.702,2.1868 -4.9996,2.1514 -4.4056,-0.1202 0.2618,-1.0009 -0.2303,-2.406 -1.0936,-3.1224 -2.3091,-1.9165 -1.923,-3.3086 0.6805,-2.4537 1.2375,0.4063 3.1092,0.6842 4.1594,0.6175 1.0502,-0.067 2.747,0.327 3.7707,0.8748 2.3127,1.2378 4.4958,0.1795 2.907,-1.4092 -1.8152,-1.8153 -1.2171,-2.8271 0.9771,-1.6528 1.6416,0.8786 1.9324,1.7046 1.4205,4.0352 -0.7685,3.499 -0.615,3.5299 4.0008,0.8065 1.98,-1.1682 3.8701,-1.8538 4.2003,-1.5235 0.3303,0.3302 -0.139,0.8841 -1.0427,1.2309 -2.0757,0.7965 -2.0775,1.8393 -0.01,3.9101 1.3438,1.3438 2.8193,1.5119 8.25,0.9402 l 6.6136,-0.6963 -1.9263,2.1549 c -1.4768,1.652 -1.6519,2.4295 -0.75,3.3313 1.8526,1.8524 1.3885,4.2287 -1.3234,6.7764 -1.375,1.2917 -2.5,3.3951 -2.5,4.6743 0,1.326 -0.6014,2.3257 -1.399,2.3257 -0.7695,0 -2.3862,1.8937 -3.5926,4.2084 -3.0582,5.8671 -3.8826,20.1054 -1.7062,29.4659 0.8728,3.7541 1.9494,8.5763 2.3924,10.716 0.4489,2.1682 1.7279,4.4974 2.8893,5.2617 1.8644,1.2269 2.5225,1.0535 6.25,-1.6467 3.9176,-2.8379 4.1661,-3.3122 4.1661,-7.9526 0,-2.7141 -0.3971,-5.1801 -0.8825,-5.4801 -0.4853,-0.3 -2.0603,0.3811 -3.5,1.5136 l -2.6175,2.0589 0,-2.3508 c 0,-1.2929 1.575,-5.6372 3.5,-9.654 1.925,-4.0168 3.5,-7.7216 3.5,-8.2327 0,-0.5112 0.916,-2.8782 2.0356,-5.2599 1.6242,-3.4554 1.8263,-4.8809 1,-7.0542 -0.5696,-1.4981 -1.0356,-4.1274 -1.0356,-5.843 0,-1.7157 -0.7387,-5.752 -1.6416,-8.9698 -1.6083,-5.732 -1.5981,-5.8967 0.5,-8.1301 1.1779,-1.2537 2.1416,-2.9829 2.1416,-3.8427 0,-2.065 -2.6162,-4.1692 -4.3544,-3.5022 -0.7589,0.2912 -3.6979,-0.5799 -6.5311,-1.9358 -2.8332,-1.3559 -5.5382,-2.2261 -6.0111,-1.9338 -0.4729,0.2922 -1.1096,-0.7172 -1.4148,-2.2432 -0.3826,-1.9131 -1.5848,-3.2276 -3.8718,-4.2338 -3.1632,-1.3916 -3.3477,-1.7716 -3.984,-8.2071 -0.4208,-4.2565 -1.4831,-8.0681 -2.877,-10.3235 -1.8225,-2.949 -2.0161,-4.0009 -1.1043,-6.0021 1.132,-2.4844 3.5405,-3.2192 4.6529,-1.4194 0.3423,0.5539 -0.081,1.277 -0.941,1.607 -2.7247,1.0456 -1.7971,3.386 1.342,3.386 1.8558,0 4.4187,-1.2644 7.0946,-3.5 4.248,-3.5492 8,-4.5768 8,-2.1912 0,0.7199 0.6414,2.1824 1.4253,3.25 1.3796,1.8789 1.4578,1.8561 2.4383,-0.7117 1.6094,-4.2145 2.8015,-4.1971 7.4733,0.1093 5.0711,4.6744 6.9876,5.0041 9.2262,1.5875 1.8071,-2.7579 1.2177,-4.5439 -1.4997,-4.5439 -3.357,0 -4.3052,-2.5399 -3.9053,-10.4599 l 0.3782,-7.4896 -4.0181,0.6118 c -2.21,0.3365 -4.9182,1.0908 -6.0182,1.6762 -1.1,0.5854 -3.575,1.1427 -5.5,1.2385 -1.925,0.096 -5.075,0.7484 -7,1.4502 -1.925,0.7018 -3.95,1.4272 -4.5,1.6121 -0.55,0.1849 -3.8682,2.3703 -7.3737,4.8564 -3.6914,2.618 -8.0106,4.7819 -10.2635,5.1422 -2.9955,0.479 -4.0267,1.167 -4.4848,2.992 -0.3271,1.3035 -1.171,2.3701 -1.8751,2.3701 -1.8025,0 -2.6912,5.8566 -1.5124,9.967 0.5869,2.0462 0.6235,3.8189 0.09,4.3524 -0.8778,0.8778 -5.692,-1.2777 -9.25229,-4.1426 -1.449,-1.166 -1.8883,-1.0147 -3.2976,1.1362 -1.6731,2.5533 -2.0313,4.7503 -1.7138,10.5085 0.1655,2.9996 0.4498,3.2904 2.9332,3 2.2276,-0.2605 2.6883,0.037 2.4249,1.5647 -0.2521,1.4623 0.1309,1.7671 1.7039,1.3557 1.76629,-0.4619 1.95639,-0.1679 1.46859,2.2709 -0.4505,2.2529 -0.05,3.136 2.0462,4.5094 2.8814,1.888 3.4833,4.4778 1.0407,4.4778 -3.0833,0 -5.59619,-2.2119 -7.46449,-6.5704 -1.5778,-3.6809 -2.3563,-4.4296 -4.6055,-4.4296 -1.4888,0 -3.5727,-0.7836 -4.6309,-1.7414 -1.8394,-1.6645 -2.0081,-1.6376 -3.8288,0.6108 -2.2668,2.7995 -2.4226,5.9035 -0.4837,9.6407 0.7814,1.5063 1.1833,3.3577 0.893,4.1143 -0.3451,0.8992 0.2018,1.3756 1.5791,1.3756 1.1589,0 2.107,0.45 2.107,1 0,2.4817 -4.6616,0.6673 -8.4538,-3.2905 l -4.111,-4.2905 1.8835,-3.225 c 2.2906,-3.922 1.6168,-6.194 -1.837,-6.194 -2.4687,0 -8.4817,2.5129 -8.4817,3.5447 0,0.2713 1.2375,0.2059 2.75,-0.1453 l 2.75,-0.6387 -2.7435,2.8404 c -2.605,2.697 -2.8312,2.7527 -4.4805,1.1035 -1.4382,-1.4383 -1.5253,-2.0758 -0.5065,-3.7072 1.7531,-2.8071 1.6167,-2.9974 -2.1471,-2.9974 -1.8888,0 -3.9681,-0.7117 -4.7175,-1.6147 -1.1504,-1.386 -0.9969,-1.8924 1.0842,-3.5776 2.2499,-1.8218 2.5124,-1.8423 3.651,-0.2852 1.314,1.797 3.3599,1.213 3.3599,-0.9591 0,-0.7252 -0.6815,-1.8842 -1.5145,-2.5755 -1.2435,-1.032 -2.423,-0.7855 -6.5923,1.3776 -2.7928,1.4489 -6.6408,2.6345 -8.5512,2.6345 -4.4662,0 -7.342,1.5618 -7.342,3.9874 0,1.6532 0.8603,1.9581 6.25,2.2148 l 6.25,0.2978 -3.7506,1.7971 c -2.0628,0.9885 -5.975,2.0607 -8.6939,2.3827 -5.9435,0.7039 -7.461705,2.934 -3.0454,4.4735 4.169,1.4533 3.7277,3.5709 -1.0101,4.8467 -4.224905,1.1376 -4.749905,1.8501 -2.8,3.8 1.8221,1.8221 5.2135,1.4544 11.9923,-1.3 3.3839,-1.375 6.9749,-2.5 7.9801,-2.5 1.0052,0 1.8276,-0.675 1.8276,-1.5 0,-1.3915 -1.7339,-1.9663 -4.75,-1.5747 -1.9423,0.2522 -1.4715,-1.7364 0.6843,-2.8902 1.0638,-0.5693 3.3296,-1.0351 5.0351,-1.0351 2.8335,0 3.0047,0.1798 1.9848,2.0856 -1.3004,2.4297 -0.4622,3.8224 1.2625,2.0977 1.6481,-1.6482 2.8336,-1.4781 2.1482,0.3082 -0.8359,2.1783 2.3094,2.9991 5.4489,1.422 1.4774,-0.7422 3.0237,-1.5138 3.4362,-1.7148 0.4125,-0.201 0.75,2.3765 0.75,5.7277 0,4.8556 0.4062,6.4409 2,7.8056 1.1,0.9418 2,2.5431 2,3.5583 0,1.7434 -0.1611,1.7311 -2.9044,-0.2223 -1.5974,-1.1374 -3.3974,-2.068 -4,-2.068 -2.8002,0 -0.019,7.1677 3.5149,9.0591 3.1211,1.6704 3.2237,4.3634 0.1395,3.6633 -9.5373,-2.1648 -8.75,-2.2713 -8.75,1.1839 0,2.1311 0.5685,3.3341 1.75,3.7035 0.9625,0.3009 2.9444,1.1867 4.4043,1.9686 3.2787,1.756 8.9988,1.8472 10.7581,0.1716 1.0707,-1.0198 1.1872,-0.8356 0.6326,1 -0.552,1.8269 -0.2911,2.25 1.3876,2.25 2.8061,0 2.5984,1.4371 -0.5675,3.9274 -3.6012,2.8327 -5.3094,2.6012 -5.992,-0.8121 -0.52,-2.6001 -1.0741,-2.9507 -5.6153,-3.5531 -2.771,-0.3676 -6.3565,-0.932 -7.9678,-1.2542 l -2.9296,-0.586 2.0661,3.389 c 1.1363,1.8639 2.0677,4.5567 2.0698,5.984 0,2.6849 2.0365,5.0372 5.5037,6.3694 1.3066,0.502 1.558,0.9332 0.7251,1.2436 -0.7011,0.2614 -1.9223,2.0247 -2.7136,3.9186 -0.7913,1.8939 -2.1301,4.1348 -2.9751,4.9798 -0.845,0.845 -1.5364,2.8543 -1.5364,4.465 0,1.6107 -0.437,2.9286 -0.9712,2.9286 -1.1737,0 -4.533,11.0451 -6.0822,19.9976 -1.5432,8.9177 -2.5247,10.4039 -4.1291,6.2524 -0.6908,-1.7875 -1.8323,-3.25 -2.5367,-3.25 -1.7708,0 -1.6085,-0.7319 0.7156,-3.2265 2.8042,-3.01 10.0036,-21.8869 10.0036,-26.2296 0,-4.1426 -2.5126,-5.931 -4.5049,-3.2064 -0.6685,0.9143 -2.1239,1.6625 -3.234,1.6625 -1.3058,0 -2.463,1.0732 -3.2776,3.0398 -1.4655,3.5379 -4.5342,5.9602 -7.551,5.9602 -1.1674,0 -2.9798,0.9598 -4.0275,2.1329 -1.8885,2.1143 -1.8855,2.1268 0.345,1.4326 1.7683,-0.5504 2.2453,-0.3112 2.228,1.1171 -0.03,2.5115 -3.5776,10.1037 -6.528305,13.9722 -1.3473,1.7664 -2.4497,4.0795 -2.4497,5.1401 0,1.0606 -1.3558,4.9186 -3.0129,8.5733 -1.6571,3.6546 -4.6457,13.7294 -6.6412,22.3883 -1.9956,8.6589 -3.9846,16.1408 -4.4201,16.6264 -1.3588,1.5155 0.2701,-14.7289 1.7758,-17.7084 0.7853,-1.554 1.8361,-5.379 2.3352,-8.5 0.954,-5.9661 5.7418,-18.1457 11.5246,-29.3174 3.588805,-6.933 4.257205,-9.8571 2.253105,-9.8571 -1.823305,0 -5.814505,4.1424 -5.814505,6.0347 0,1.797 -4.6501,9.2401 -6.1217,9.7986 -0.4831,0.1833 -0.8783,1.6458 -0.8783,3.25 0,2.195 -0.4684,2.9167 -1.893,2.9167 -2.6341,0 -3.107,1.8472 -3.107,12.1366 0,7.1006 -0.4531,9.9529 -2.1712,13.6682 -1.9202,4.1524 -2.282,7.4116 -3.1304,28.1952 -0.9576,23.461 -0.9551,23.5116 1.4618,30.5 l 2.421,7 6.9495,0.7718 c 9.0315,1.0031 12.101205,-0.1912 13.459705,-5.2363 0.552,-2.05 2.355,-5.5928 4.0066,-7.8728 1.6517,-2.28 3.003,-5.0493 3.003,-6.1541 0,-1.1047 0.3375,-1.9554 0.75,-1.8902 2.2011,0.3475 3.1263,-0.2773 2.5673,-1.7338 -0.4928,-1.2844 -0.179,-1.4755 1.5314,-0.9327 1.7282,0.5485 2.1513,0.2762 2.1513,-1.3846 0,-1.171 0.6504,-2.0673 1.5,-2.0673 1.6724,0 2.123,-4.9447 0.597,-6.55 -1.2791,-1.3456 -1.9253,-7.9198 -3.1897,-32.45 -0.6095,-11.825 -1.2955,-21.695 -1.5244,-21.9334 -1.3514,-1.4069 -2.8564,2.9609 -3.3332,9.6735 -0.4773,6.72 -0.8132,7.788 -2.5497,8.1073 -1.1,0.2023 -2.5625,0.8244 -3.25,1.3826 -1.8525,1.504 -1.5444,4.77 0.45,4.77 1.2294,0 1.3975,0.3024 0.6074,1.0926 -1.3233,1.3233 -3.853,0.1385 -6.941005,-3.2508 -2.7855,-3.0572 -4.4147,-14.1814 -1.9379,-13.2309 1.1742,0.4506 1.5715,-0.039 1.5715,-1.9346 0,-2.4728 3.812005,-9.5495 5.189605,-9.634 0.3793,-0.023 0.8293,1.5776 1,3.5574 l 0.3104,3.5998 2.75,-2.1723 c 2.1644,-1.7098 2.75,-3.0087 2.75,-6.0998 0,-4.8212 1.1929,-4.9346 5.5956,-0.5319 3.3451,3.3451 3.3855,3.4901 2.7193,9.75 -0.372,3.495 -0.7075,10.6295 -0.7456,15.8545 -0.063,8.6247 0.097,9.4717 1.7356,9.1935 1.6907,-0.287 1.7061,-0.1156 0.2442,2.7115 -1.3965,2.7006 -1.4071,3.8896 -0.1004,11.3065 2.309,13.1056 3.2321,16.8693 4.4317,18.0689 0.6158,0.6158 1.1196,2.3301 1.1196,3.8095 0,1.6266 1.8441,5.2044 4.6644,9.05 6.5263,8.8987 22.6236,24.6488 26.0359,25.4744 1.5398,0.3725 3.9247,1.4591 5.2997,2.4147 3.1534,2.1915 5.24699,2.71 11.52749,2.855 3.0276,0.07 5.8812,-0.482 7.1735,-1.3871 z m -9.9724,-15.6289 c -1.9105,-1.0691 -2.42,-5.2651 -0.5642,-4.6465 1.6905,0.5635 4.0991,4.4976 3.1229,5.1009 -0.4565,0.2822 -1.6079,0.078 -2.5587,-0.4544 z m -16.72859,-10.309 c 0,-0.8574 0.45,-1.559 1,-1.559 0.55,0 1,0.4235 1,0.941 0,0.5175 -0.45,1.2191 -1,1.559 -0.55,0.3399 -1,-0.083 -1,-0.941 z m -2.9157,-5.809 c -0.4681,-1.2375 -0.6895,-2.4266 -0.4919,-2.6425 0.6583,-0.7192 3.4076,2.1166 3.4076,3.515 0,2.19 -1.9814,1.5971 -2.9157,-0.8725 z m -5.4448,-4.4438 c -1.1262,-1.1262 -0.6859,-2.3062 0.8605,-2.3062 0.825,0 1.5,0.4235 1.5,0.941 0,1.261 -1.5616,2.1641 -2.3605,1.3652 z m 21.02719,-1.9729 c -0.36669,-0.3666 -0.66669,-1.2825 -0.66669,-2.0351 0,-1.0587 0.4529,-1.1262 1.99999,-0.2982 1.1,0.5887 2,1.5045 2,2.0352 0,1.0971 -2.3263,1.3051 -3.3333,0.2981 z m -7.66669,-8.8923 c 0,-1.4514 0.4328,-2.2915 1,-1.941 0.55,0.3399 1,1.4915 1,2.559 0,1.0676 -0.45,1.941 -1,1.941 -0.55,0 -1,-1.1515 -1,-2.559 z m -50.9847,0.368 c -0.01,-0.93 0.4347,-1.9691 0.9847,-2.309 1.2656,-0.7822 1.2656,0.5416 0,2.5 -0.8354,1.2927 -0.9715,1.2663 -0.9847,-0.191 z m 32.6202,-1.2426 c -1.8533,-2.8284 -2.1642,-5.0112 -0.5738,-4.0283 1.1839,0.7317 3.215,5.5186 2.6017,6.1318 -0.2158,0.2159 -1.1284,-0.7307 -2.0279,-2.1035 z m 30.42929,-6.304 c -1.6945,-2.0556 -3.8134,-5.6556 -4.70869,-8 -0.8953,-2.3443 -2.0167,-4.2624 -2.492,-4.2624 -0.4752,0 -0.8641,-0.6609 -0.8641,-1.4686 0,-2.3047 2.2472,-0.7959 5.24049,3.5186 1.5073,2.1725 3.4039,3.95 4.2148,3.95 1.9468,0 3.5447,3.1259 3.5447,6.9343 0,4.0302 -1.1933,3.8678 -4.9352,-0.6719 z m -36.06479,-6.7624 c 0,-4.5841 0.2673,-5.6327 1.1982,-4.7017 1.4701,1.4701 1.3999,8.0036 -0.1022,9.5057 -0.7947,0.7947 -1.096,-0.526 -1.096,-4.804 z m -29.7818,0.3455 c 0.519,-1.5571 2.7562,-1.8298 2.8346,-0.3455 0.029,0.55 -0.6978,1.1555 -1.6151,1.3455 -1.0428,0.216 -1.4999,-0.1589 -1.2195,-1 z m -15.026505,-0.9205 c 0.1971,-0.5912 0.7858,-1.075 1.3083,-1.075 0.5225,0 1.1112,0.4838 1.3083,1.075 0.1971,0.5913 -0.3916,1.075 -1.3083,1.075 -0.9167,0 -1.5054,-0.4837 -1.3083,-1.075 z m 62.966205,-1.925 c 0,-1.375 0.227,-1.9375 0.5044,-1.25 0.2774,0.6875 0.2774,1.8125 0,2.5 -0.2774,0.6875 -0.5044,0.125 -0.5044,-1.25 z m -61.079005,-4.5833 c 0.048,-1.165 0.285,-1.4019 0.6042,-0.6042 0.2889,0.7219 0.2534,1.5844 -0.079,1.9167 -0.3323,0.3323 -0.5687,-0.2584 -0.5253,-1.3125 z m 33.655105,-1.0279 c -0.678,-3.5466 0.2473,-7.0251 1.3894,-5.2233 1.118,1.7636 1.1119,6.571 -0.01,7.2638 -0.4871,0.3011 -1.1082,-0.6171 -1.3803,-2.0405 z m 24.3449,-2.9721 c 0.048,-1.165 0.285,-1.4019 0.6042,-0.6042 0.2889,0.7219 0.2534,1.5844 -0.079,1.9167 -0.3323,0.3323 -0.5687,-0.2584 -0.5253,-1.3125 z m -52.689805,-0.3964 c -2.5922,-1.0474 -3.3406,-2.8231 -2.6695,-6.3337 0.9327,-4.8791 2.8699,-2.8202 2.3448,2.4921 -0.1123,1.1355 0.7153,1.7826 2.5577,2 1.498005,0.1767 2.908405,0.8838 3.134105,1.5713 0.466,1.419 -2.192905,1.5529 -5.367105,0.2703 z m 81.938395,-6.8679 c -3.4514,-7.8054 -3.1648,-8.4111 1.0811,-2.2843 1.7663,2.5489 2.6257,4.9342 2.4163,6.7073 -0.2781,2.3552 -0.7819,1.718 -3.4974,-4.423 z m -53.49379,-1.4512 c -0.5877,-5.0337 0.2073,-11.7012 1.3952,-11.7012 0.6235,0 0.8418,2.1339 0.5627,5.5 -0.2509,3.025 -0.2155,5.5 0.079,5.5 0.2941,0 2.0119,-1.4317 3.8173,-3.1816 1.8055,-1.7499 3.504,-2.9603 3.7746,-2.6897 0.2705,0.2705 -1.6936,2.6445 -4.3647,5.2755 l -4.8566,4.7835 -0.407,-3.4865 z m -2.8019,-17.8679 c 0.03,-4.0773 0.1208,-4.2156 1.5377,-2.3405 1.7138,2.2677 1.5412,5.6494 -0.3195,6.2622 -0.874,0.2879 -1.2404,-0.8918 -1.2182,-3.9217 z m -16.3921,-11.679 c -1.5655,-1.7298 -1.5438,-2.0065 0.345,-4.4077 1.1084,-1.4091 2.0153,-2.8468 2.0153,-3.1948 0,-0.348 1.011,-2.077 2.2466,-3.8423 1.2357,-1.7652 2.3682,-3.4045 2.5167,-3.6428 0.1485,-0.2384 0.7996,0.096 1.4468,0.7434 0.9023,0.9023 0.561,1.8196 -1.4636,3.9333 -2.9959,3.1277 -6.1071,9.8641 -5.2193,11.3006 0.9823,1.5895 -0.1098,1.0747 -1.8875,-0.8897 z m 38.8603,-7.1543 c 0.9955,-1.1 2.1902,-2 2.655,-2 1.4981,0 0.8975,2.7659 -0.7368,3.393 -2.9836,1.145 -3.7267,0.6054 -1.9182,-1.393 z m 8.5062,-59.095 c -0.01,-4.2112 -2.7524,-7.3233 -5.5223,-6.2604 -1.4802,0.568 -1.7031,0.3017 -1.2376,-1.4783 0.3609,-1.3804 0.01,-2.4839 -0.9677,-3.0303 -1.0694,-0.5984 -1.1908,-1.0722 -0.4002,-1.5608 0.6244,-0.3859 2.4391,0.2268 4.0328,1.3616 3.2778,2.334 5.1665,2.5855 6.8409,0.9111 0.8695,-0.8695 1.4491,-0.5005 2.3625,1.5042 1.3773,3.023 0.6091,4.4934 -1.4534,2.7817 -1.126,-0.9345 -1.3058,-0.7255 -0.955,1.1097 0.2377,1.2436 -0.2711,3.61 -1.1308,5.2588 l -1.5631,2.9977 -0.01,-3.595 z m 28.29999,-62.6038 c -1.7035,-0.6141 -3.7447,-7.2627 -2.5855,-8.4219 1.2798,-1.2798 6.2793,2.7575 6.2793,5.0709 0,2.1367 -2.0082,3.9585 -3.6938,3.351 z m 36.7433,-21.4784 c -1.1156,-1.1975 -1.8467,-2.3589 -1.6246,-2.581 0.7137,-0.7137 4.3201,1.6514 4.9261,3.2304 0.8537,2.2248 -0.9553,1.8689 -3.3015,-0.6494 z m -114.36659,170.3793 c -1.6041,-1.7725 -1.5869,-1.979 0.309,-3.6948 2.5646,-2.3208 2.8917,-5.4834 0.3496,-3.3797 -2.3311,1.9291 -5.293405,8.8082 -5.319505,12.3532 l -0.022,2.9808 3.191005,-3.191 c 3.0318,-3.0318 3.1062,-3.2847 1.4919,-5.0685 z m 55.4884,-27.8571 c 2.3417,-2.1193 2.3101,-3.5993 -0.1241,-5.8022 -1.8893,-1.7099 -1.9736,-1.6743 -2.5929,1.095 -0.3521,1.5742 -0.8537,3.6497 -1.1146,4.6122 -0.6007,2.2157 1.4326,2.2661 3.8316,0.095 z m -6.7889,-11.9576 -0.6557,-2.6126 2.6678,1.7481 c 3.1081,2.0364 4.56,1.2352 2.8176,-1.5548 -0.6666,-1.0675 -1.2121,-2.6221 -1.2121,-3.4545 0,-2.1656 -1.0027,-1.8852 -4.1953,1.1735 -3.2364,3.1007 -3.5232,4.7951 -1.0547,6.2328 2.3911,1.3927 2.3712,1.4113 1.6324,-1.5325 z m -2.3519,-5.4443 c 1.47,-2.7469 -0.8427,-3.5754 -3.2527,-1.1653 -2.1761,2.1761 -1.6657,4.5002 0.782,3.5609 0.8227,-0.3157 1.9345,-1.3937 2.4707,-2.3956 z m 46.54299,-4.2579 c -2.9147,-3.8213 -3.2667,-5.6852 -1.0735,-5.6852 2.3868,0 1.7503,-1.6856 -1.5142,-4.0101 l -3.0142,-2.1463 1.1766,2.5824 c 1.3445,2.9509 0.2133,4.9714 -1.2847,2.2947 -1.4983,-2.6775 -2.8635,-1.071 -2.8635,3.3697 0,4.2403 2.379,6.428 4.138,3.8053 0.7423,-1.1068 1.49,-0.7001 3.6123,1.9646 3.4507,4.3328 4.2255,2.2856 0.8232,-2.1751 z m -66.23279,-12.6511 c -0.1895,-3.8681 -1.5816,-5.5394 -3.8796,-4.6575 -1.2607,0.4838 -1.504,1.3163 -0.9868,3.3771 1.4902,5.9373 5.1415,6.898 4.8664,1.2804 z m 69.65929,-48.4751 c 0,-0.7925 -0.359,-1.6628 -0.7977,-1.934 -1.2793,-0.7906 -3.5252,1.0435 -2.7714,2.2632 0.9922,1.6054 3.5691,1.3678 3.5691,-0.3292 z m 21.7057,-11.5766 c -0.2902,-1.1097 0.1394,-2.6847 0.9548,-3.5 1.7363,-1.7364 0.1644,-1.9942 -2.7262,-0.4472 -2.168,1.1603 -2.6027,4.5284 -0.6843,5.3025 2.3994,0.9682 2.9795,0.648 2.4557,-1.3553 z m -82.74559,-11.5304 c -1.3654,-1.6453 -4.9601,-1.9728 -4.9601,-0.452 0,1.8789 0.4407,2.5001 1.587,2.2368 0.6304,-0.1447 1.7687,0.4878 2.5296,1.4057 1.29,1.5563 1.4058,1.554 1.716,-0.035 0.1829,-0.937 -0.2097,-2.3571 -0.8725,-3.1557 z m 71.61349,-1.8659 c 1.1103,-0.7776 3.3479,-1.5651 4.9725,-1.75 5.4906,-0.6247 9.6344,-13.6784 4.9168,-15.4887 -0.8661,-0.3323 -3.1308,0.9268 -5.4731,3.0428 -4.409,3.9833 -4.2965,3.9484 -11.7398,3.6415 l -5.25,-0.2165 0,3.4576 c 0,7.1046 7.0321,11.1947 12.5736,7.3133 z m 18.3912,-1.5203 c 1.504,-2.8102 1.3451,-9.3342 -0.2148,-8.822 -0.6875,0.2257 -1.4015,1.7257 -1.5868,3.3333 -0.1852,1.6076 -0.9976,3.2967 -1.8054,3.7536 -1.1461,0.6483 -1.2099,1.1425 -0.2908,2.25 1.598,1.9255 2.6674,1.7842 3.8978,-0.5149 z m -80.96479,-0.8658 c 0,-0.44 -0.5484,-1.3484 -1.2187,-2.0187 -0.9584,-0.9584 -0.4776,-1.0772 2.25,-0.556 l 3.4687,0.6628 -2.1834,-2.394 c -1.2009,-1.3168 -2.6436,-3.6089 -3.2061,-5.0937 -0.7698,-2.0321 -2.0845,-2.9716 -5.3166,-3.7994 -6.2552,-1.602 -7.1518,-1.9764 -6.4397,-2.6886 0.9363,-0.9362 8.6238,-0.4747 12.2993,0.7383 3.5149,1.16 5.0059,3.4823 2.7834,4.3352 -3.1067,1.1921 -1.3301,2.7214 2.8131,2.4216 3.764,-0.2723 4.2852,-0.6115 4.5576,-2.9658 0.2598,-2.2454 -0.533,-3.2162 -5.1035,-6.25 -2.9761,-1.9754 -5.9013,-3.5917 -6.5004,-3.5917 -0.5992,0 -2.6991,-0.9497 -4.6665,-2.1105 -2.9117,-1.718 -4.4501,-1.9797 -8.2697,-1.4069 -11.2421,1.6859 -17.6653,7.1262 -17.1321,14.5105 0.2177,3.0155 -0.2708,4.5222 -2.0964,6.4654 -1.3091,1.3935 -2.099,2.8148 -1.7553,3.1585 0.9323,0.9323 11.5866,-0.5981 12.3098,-1.7682 0.3437,-0.5562 -0.5492,-2.2369 -1.9843,-3.7348 -3.2547,-3.3972 -3.3086,-4.3304 -0.1812,-3.1414 1.3353,0.5077 5.4978,0.6771 9.25,0.3764 6.5419,-0.5243 12.322,0.618 12.322,2.4351 0,0.4585 -0.6476,1.7072 -1.4391,2.7748 -1.2152,1.6392 -1.7525,1.7499 -3.4536,0.7116 -1.9344,-1.1806 -4.1615,0.01 -2.7185,1.4517 1.3927,1.3926 11.6112,2.6932 11.6112,1.4778 z m -24,-15.2 c 0,-0.55 0.9,-1 2,-1 1.1,0 2,0.45 2,1 0,0.55 -0.9,1 -2,1 -1.1,0 -2,-0.45 -2,-1 z m 9.0201,11.4758 c 0.6957,-0.8382 1.0097,-1.7793 0.6978,-2.0913 -0.9285,-0.9284 -4.4891,0.5768 -5.0941,2.1536 -0.7616,1.9846 2.7387,1.935 4.3963,-0.062 z"
               id="path11712"
               inkscape:connector-curvature="0"
               sodipodi:nodetypes="ccsssccccsscscscsssccsccscccscssscccccssscsscccscscccccssccccssssssccsccssscscsscsccccsccccccsccccssscccssssscsscccsccscsccsccsssccssscccssssscsccccscsccsccsccsssscccccsscssscccsssssscsscsccsccscssccccscscccccccscccccccscssccscsscccssscssccscscsccccccscsscscsscsscsssccscssccsccccsssccccssscsssccsccsccssccsscccsscssssscsccccsscscsccscsccssssccscccssssssssscssscccsssccscssscsssssccsscscccsssscsccscssscsccsscccssssscsccccsccsssssccscsssscscscscsssccscsccsccsscsscscssccsccscscsssscccccccccccccccsscccssccscscscscccccccccsscccscccscccscccsscsccccccssccsccscsccssscccsscccsscsccsccsscscssccccccsccsccssccscccccccccscscccccccssscccccsccscscsccscscsscccssssssccccc" />
          </g>
        </g>
        <g
           id="g11728"
           transform="matrix(0.50160907,1.082273,-1.0369268,0.50919742,1481.7071,-654.67453)">
          <g
             id="g11720">
            <path
               inkscape:connector-curvature="0"
               id="path11716"
               d="m 564.65779,1207.1361 -26.68515,9.6066 -28.81996,17.0785 -20.28071,-10.674 -21.34812,0 -10.67406,5.337 -10.67406,30.9548 -7.47185,12.8088 2.13481,11.7415 8.53925,-2.1348 17.0785,-7.4718 10.67406,2.1348 -3.20222,13.8762 -4.26962,5.3371 -4.26963,10.674 0,11.7415 0,6.4044 -21.34812,17.0785 -17.0785,20.2808 -8.53925,29.8873 -3.20221,54.4377 7.47184,23.483 16.01109,-2.1349 21.34812,-22.4155 25.61775,29.8874 34.15699,14.9437 22.41553,-44.8311 16.01109,-40.5614 -14.94369,-14.9437 -23.48293,-13.8763 -20.28071,-39.494 10.67406,-16.0111 14.94368,-1.0674 1.06741,24.5503 13.87628,4.2697 11.74146,-3.2022 11.74147,-7.4719 0,-38.4266 -1.06741,-25.6177 11.74147,-19.2134 0,-25.6177 1.06741,-8.5393 z"
               style="fill:#d2526f;fill-opacity:1;fill-rule:evenodd;stroke:none;stroke-width:1px;stroke-linecap:butt;stroke-linejoin:miter;stroke-opacity:1" />
            <path
               sodipodi:nodetypes="ccsssccccsscscscsssccsccscccscssscccccssscsscccscscccccssccccssssssccsccssscscsscsccccsccccccsccccssscccssssscsscccsccscsccsccsssccssscccssssscsccccscsccsccsccsssscccccsscssscccsssssscsscsccsccscssccccscscccccccscccccccscssccscsscccssscssccscscsccccccscsscscsscsscsssccscssccsccccsssccccssscsssccsccsccssccsscccsscssssscsccccsscscsccscsccssssccscccssssssssscssscccsssccscssscsssssccsscscccsssscsccscssscsccsscccssssscsccccsccsssssccscsssscscscscsssccscsccsccsscsscscssccsccscscsssscccccccccccccccsscccssccscscscscccccccccsscccscccscccscccsscsccccccssccsccscsccssscccsscccsscsccsccsscscssccccccsccsccssccscccccccccscscccccccssscccccsccscscsccscscsscccssssssccccc"
               inkscape:connector-curvature="0"
               id="path11718"
               d="m 510.08588,1494.797 c -1.65,-0.4198 -4.89139,-0.8166 -7.20309,-0.8817 -3.5223,-0.099 -5.0613,-0.8878 -9.5,-4.8683 -6.4667,-5.799 -12.3518,-11.8704 -16.1454,-16.6563 -1.5667,-1.9765 -3.606,-3.5937 -4.5319,-3.5937 -1.099,0 -1.7595,-0.9195 -1.9026,-2.6489 -0.2472,-2.9863 -2.0197,-5.5911 -3.2762,-4.8145 -0.7877,0.4869 -2.9232,-5.5649 -2.9352,-8.318 0,-0.7047 -0.6806,-1.5404 -1.5056,-1.857 -0.825,-0.3165 -1.5,-1.2809 -1.5,-2.1429 0,-3.5175 -4.9336,3.2381 -8.6548,11.851 -2.9491,6.8258 -4.3002,8.9035 -5.7976,8.9151 -1.0738,0.01 -3.4622,1.4777 -5.30751,3.2652 -2.9966,2.9027 -3.9543,3.244 -8.9616,3.194 -5.299,-0.053 -5.811,-0.2864 -9.3338,-4.2561 -2.1249,-2.3944 -3.925,-5.5947 -4.1872,-7.444 -0.8315,-5.8654 -2.9016,-13.1773 -4.863,-17.1768 -1.3074,-2.666 -1.6011,-4.2605 -0.9116,-4.95 1.3967,-1.3967 1.2833,-7.9509 -0.1627,-9.3969 -0.9064,-0.9064 -0.8791,-1.7417 0.118,-3.6046 0.7137,-1.3337 1.043,-2.837 0.7316,-3.3408 -0.877,-1.4191 1.3182,-21.4759 2.6474,-24.1884 0.8847,-1.8054 0.8934,-2.5109 0.035,-2.7994 -1.3439,-0.4515 -0.6422,-8.0781 0.9258,-10.0612 0.554,-0.7007 0.7362,-1.5453 0.4048,-1.8767 -0.3315,-0.3315 0.031,-1.8287 0.8062,-3.3271 1.0053,-1.9439 1.1008,-3.0326 0.3334,-3.8 -0.7675,-0.7674 -0.4663,-2.0615 1.0512,-4.5168 1.1697,-1.8927 2.1268,-4.2232 2.1268,-5.1789 0,-0.9556 1.125,-3.0746 2.5,-4.7087 1.375,-1.634 2.5,-3.669 2.5,-4.5222 0,-1.9449 11.2086,-15.307 25.25001,-30.1013 9.725,-10.2464 10.75,-11.6823 10.75,-15.0602 0,-2.0536 0.5466,-4.2804 1.2146,-4.9484 0.668,-0.6681 1.4703,-3.8896 1.7829,-7.1589 0.5196,-5.4348 0.394,-5.9693 -1.4646,-6.2355 -1.9113,-0.2737 -1.8733,-0.4322 0.6363,-2.6512 1.4681,-1.298 2.9392,-3.4355 3.2691,-4.75 0.3299,-1.3144 1.0412,-2.3899 1.5808,-2.3899 0.5395,0 0.9809,-1.2021 0.9809,-2.6712 0,-1.4692 0.7544,-3.5049 1.6764,-4.5237 1.0935,-1.2083 1.336,-2.1927 0.6974,-2.8313 -1.4444,-1.4443 -11.6812,0.6508 -19.3738,3.9652 -6.9487,2.9939 -15.93471,5.4597 -16.78781,4.6066 -0.2853,-0.2853 -0.6143,-2.0933 -0.7311,-4.0179 -0.1169,-1.9245 -0.6857,-4.0693 -1.2641,-4.7662 -0.7492,-0.9028 -0.644,-1.8246 0.3657,-3.2054 0.7795,-1.0661 1.4173,-2.757 1.4173,-3.7575 0,-1.0005 1.485,-3.952 3.2999,-6.5588 1.81491,-2.6069 3.91411,-6.3148 4.66471,-8.2398 0.7506,-1.925 1.9079,-4.175 2.5716,-5 2.0432,-2.5396 3.7838,-6.3158 2.5636,-5.5616 -1.575,0.9733 -1.2989,-1.5912 0.4151,-3.8563 1.0621,-1.4038 1.1601,-2.2688 0.3654,-3.2264 -0.8171,-0.9845 -0.318,-2.2779 2.0169,-5.2259 1.7065,-2.1547 3.1028,-4.6403 3.1028,-5.5237 0,-0.8833 0.6206,-1.6061 1.3792,-1.6061 0.7585,0 3.9306,-1.1681 7.049,-2.5958 7.0634,-3.2337 18.3134,-3.77 23.0718,-1.0999 1.65,0.9259 3.6902,1.6862 4.5337,1.6896 0.8436,0 3.9936,1.597 7,3.5415 6.3652,4.1168 7.7424,4.0239 16.11699,-1.0869 3.1079,-1.8967 6.1002,-3.4485 6.6495,-3.4485 0.5494,0 3.4065,-1.6259 6.3493,-3.6131 8.9781,-6.0628 19.9839,-11.0813 26.852,-12.2442 11.3205,-1.9167 21.9985,1.1051 21.9985,6.2254 0,1.2771 0.8527,3.0936 1.8949,4.0368 2.13472,1.9319 3.31275,6.3487 1.92243,7.208 -0.5225,0.3229 -0.41485,1.1671 0.25115,1.9696 0.89859,1.0828 0.79979,2.1753 -0.43134,4.7697 -3.06064,6.4498 -3.40674,23.8595 -0.43788,22.0247 0.76416,-0.4723 0.91951,-0.1288 0.47068,1.0409 -0.36847,0.9602 -0.66994,2.3537 -0.66994,3.0966 0,0.743 -0.7875,1.6046 -1.75,1.9148 -0.9625,0.3102 -4.382,5.0146 -7.5989,10.4542 l -5.8489,9.8902 -0.242,26.3632 c -0.1534,16.7211 -0.6693,27.6849 -1.4105,29.9771 -1.421,4.3947 -11.117,13.8861 -14.1855,13.8861 -1.1855,0 -3.4114,0.8943 -4.9465,1.9874 l -2.791,1.9874 -0.5521,-2.1112 c -0.5652,-2.1613 -0.5643,-2.1613 -7.3488,-0.2746 -1.7898,0.4977 -2.2319,0.1399 -2.5,-2.0233 -0.4451,-3.5903 -2.0072,-3.5 -3.9247,0.2268 l -1.599,3.1075 -2.2593,-3.0559 c -1.8556,-2.5098 -2.2363,-4.2432 -2.1308,-9.7 0.071,-3.6542 0.5417,-8.4192 1.0468,-10.5889 0.5052,-2.1696 0.6945,-4.3071 0.4208,-4.75 -0.7206,-1.1659 -5.1477,-0.9894 -5.9047,0.2355 -0.3538,0.5724 -1.5369,0.757 -2.6292,0.4103 -1.4465,-0.459 -2.1255,-0.097 -2.4995,1.3331 -0.2824,1.0799 -1.8258,2.9337 -3.4298,4.1196 -3.20889,2.3724 -3.75749,4.5596 -1.37329,5.4745 1.19449,0.4584 1.30749,1.0325 0.5,2.5412 -2.5611,4.7855 -0.4341,12.5042 5.13309,18.6276 1.8857,2.0739 3.1884,4.4772 3.0109,5.5544 -0.1958,1.1884 0.2718,1.8986 1.25,1.8986 2.3446,0 5.1701,3.2861 5.8808,6.8395 1.1437,5.7184 3.3308,7.7968 10.6976,10.1655 3.8128,1.226 7.619,1.9655 8.4584,1.6434 1.6847,-0.6465 2.1154,0.8694 0.5261,1.8516 -1.7864,1.1041 -1.0551,2.6523 0.952,2.0153 1.449,-0.46 3.5079,0.8109 7.9913,4.9326 3.3216,3.0537 6.5198,5.5521 7.107,5.5521 0.5873,0 0.7896,0.45 0.4497,1 -0.3399,0.55 -0.076,1 0.5856,1 1.6496,0 0.5971,10.3224 -2.0145,19.7582 -1.1049,3.992 -2.8427,10.292 -3.8618,14 -1.2192,4.4364 -3.5384,9.1355 -6.782,13.7418 -7.1029,10.0869 -9.25,14.991 -11.9623,27.3218 -3.3763,15.3494 -13.0893,23.2001 -24.965,20.1782 z m 12.201,-16.5031 c 2.6586,-1.8622 4.6978,-7.753 3.9603,-11.4406 -0.3041,-1.5205 -0.2181,-3.1677 0.1911,-3.6605 1.5747,-1.8958 4.0343,-11.1861 4.6463,-17.5494 0.3519,-3.6595 1.2694,-7.4845 2.0388,-8.5 0.7694,-1.0155 1.4132,-2.8589 1.4307,-4.0964 0.018,-1.2517 0.6558,-2.25 1.4382,-2.25 0.876,0 1.2239,-0.6976 0.9226,-1.8498 -0.3113,-1.1905 0.9623,-3.5206 3.5735,-6.5375 5.5501,-6.4127 9.2114,-12.914 9.3145,-16.5398 0.1653,-5.8147 -8.2469,-15.1183 -14.9555,-16.5403 -1.7812,-0.3776 -3.4953,-1.1018 -3.809,-1.6095 -0.3138,-0.5077 -1.4678,-0.9231 -2.5646,-0.9231 -1.0967,0 -3.6496,-1.125 -5.6731,-2.5 -2.0235,-1.375 -3.9974,-2.5 -4.3866,-2.5 -0.3891,0 -0.858,1.6875 -1.0419,3.75 l -0.3345,3.75 -1.3864,-2.75 c -1.107,-2.1958 -1.145,-3.2799 -0.1885,-5.3792 1.3372,-2.9349 0.7226,-4.3703 -1.0936,-2.5541 -1.9007,1.9007 -2.5173,1.4155 -3.2615,-2.5667 -0.3854,-2.0625 -1.2033,-4.3579 -1.8175,-5.1009 -0.6141,-0.743 -1.2123,-2.0028 -1.32929,-2.7997 -0.5335,-3.6349 -3.9218,-5.4026 -6.1276,-3.1968 -0.8701,0.8701 -0.674,1.7609 0.8,3.6348 1.5974,2.0308 1.9526,4.0671 1.9526,11.1938 0,5.9124 0.5044,9.7225 1.5697,11.858 1.4871,2.9811 1.2041,7.1608 -0.4849,7.1608 -0.4292,0 -0.8217,-1.2375 -0.8721,-2.75 -0.05,-1.5125 -2.6414,-8.7703 -5.7578,-16.1285 -3.3343,-7.8726 -6.1976,-16.4384 -6.9574,-20.8135 -0.7101,-4.0892 -1.5841,-7.7279 -1.9422,-8.0861 -1.2166,-1.2165 -4.0532,1.4799 -4.5557,4.3306 l -0.5004,2.8386 -1.2496,-2.7426 c -1.6588,-3.6407 -1.5773,-6.1317 0.2504,-7.6485 1.045,-0.8672 1.5,-3.1699 1.5,-7.5905 0,-5.884 -0.2001,-6.4572 -2.75,-7.8795 l -2.75,-1.534 3.9605,0.252 c 3.3072,0.2104 4.056,0.6644 4.5396,2.752 0.4145,1.7898 1.349,2.5899 3.2894,2.8164 2.4052,0.2808 2.7105,-0.015 2.7105,-2.6275 0,-1.6192 -0.6967,-3.5222 -1.5483,-4.2289 -1.7846,-1.4811 -1.5165,-5.586 0.3399,-5.204 0.6843,0.1407 2.8111,-0.3988 4.7263,-1.199 3.6159,-1.5108 4.5437,-4.0954 2.2821,-6.357 -0.9333,-0.9333 -0.8222,-1.2 0.5,-1.2 0.935,0 1.7,0.4342 1.7,0.9648 0,0.5307 0.9682,1.483 2.1516,2.1164 1.8355,0.9823 2.0559,0.914 1.5,-0.4649 -0.3584,-0.8889 -0.9418,-2.3358 -1.2966,-3.2153 -0.5623,-1.3941 -0.3748,-1.4303 1.4629,-0.2827 1.72679,1.0785 2.97069,1.0856 6.88199,0.04 2.6259,-0.7023 5.4905,-1.9251 6.3659,-2.7173 0.8754,-0.7922 2.7781,-1.4404 4.2281,-1.4404 3.0279,0 9.0828,-4.894 11.2572,-9.0988 2.3376,-4.5206 1.3777,-12.9013 -1.4777,-12.9013 -0.471,0 -4.5857,3.15 -9.1438,7 -4.5582,3.85 -8.8821,7 -9.6086,7 -0.7265,0 -1.6585,-0.018 -2.071,-0.039 -0.4125,-0.022 -0.975,1.4409 -1.25,3.25 -0.4364,2.8711 -0.9216,3.3298 -3.81529,3.6076 -3.0752,0.2951 -6.1847,-1.1027 -6.1847,-2.7802 0,-0.3944 1.125,-1.2296 2.5,-1.8561 1.375,-0.6265 2.5,-1.7334 2.5,-2.4597 0,-0.7263 1.57499,-1.89 3.49999,-2.5861 4.0881,-1.4783 4.2095,-1.9645 1.386,-5.554 -3.0359,-3.8595 -1.5798,-4.335 3.1781,-1.0377 3.185,2.2072 4.4727,2.6067 5.7681,1.7895 1.9647,-1.2393 2.1951,-3.4915 0.4178,-4.084 -0.6875,-0.2292 -1.25,0.2958 -1.25,1.1667 0,2.8098 -2.8583,1.6857 -5.464,-2.1488 -1.3948,-2.0527 -2.536,-4.333 -2.536,-5.0674 0,-0.95 -0.6492,-1.1094 -2.25,-0.5525 -1.2375,0.4306 -3.48749,0.7984 -4.99999,0.8174 -1.9392,0.024 -2.75,0.5506 -2.75,1.7846 0,3.1668 -1.8954,1.8247 -2.5805,-1.8272 -0.8426,-4.4918 0.8704,-12.98 2.0026,-9.9228 2.2189,5.992 2.6104,6.5 5.0094,6.5 1.3609,0 3.58639,-0.5067 4.94559,-1.1259 2.0334,-0.9265 3.2816,-0.7336 7.047,1.0892 2.5167,1.2183 4.5759,2.8233 4.5759,3.5666 0,1.1152 0.4808,1.1007 2.75,-0.083 1.5125,-0.789 4.0016,-1.4373 5.5314,-1.4407 1.7677,0 2.9831,-0.6439 3.3348,-1.7561 0.3043,-0.9625 1.2606,-3.4421 2.1251,-5.5102 1.7224,-4.121 1.1793,-5.7488 -1.2464,-3.7356 -1.3007,1.0795 -1.9599,0.9075 -4.0512,-1.0571 -2.4184,-2.272 -2.589,-2.2925 -5.375,-0.6468 -3.702,2.1868 -4.9996,2.1514 -4.4056,-0.1202 0.2618,-1.0009 -0.2303,-2.406 -1.0936,-3.1224 -2.3091,-1.9165 -1.923,-3.3086 0.6805,-2.4537 1.2375,0.4063 3.1092,0.6842 4.1594,0.6175 1.0502,-0.067 2.747,0.327 3.7707,0.8748 2.3127,1.2378 4.4958,0.1795 2.907,-1.4092 -1.8152,-1.8153 -1.2171,-2.8271 0.9771,-1.6528 1.6416,0.8786 1.9324,1.7046 1.4205,4.0352 -0.7685,3.499 -0.615,3.5299 4.0008,0.8065 1.98,-1.1682 3.8701,-1.8538 4.2003,-1.5235 0.3303,0.3302 -0.139,0.8841 -1.0427,1.2309 -2.0757,0.7965 -2.0775,1.8393 -0.01,3.9101 1.3438,1.3438 2.8193,1.5119 8.25,0.9402 l 6.6136,-0.6963 -1.9263,2.1549 c -1.4768,1.652 -1.6519,2.4295 -0.75,3.3313 1.8526,1.8524 1.3885,4.2287 -1.3234,6.7764 -1.375,1.2917 -2.5,3.3951 -2.5,4.6743 0,1.326 -0.6014,2.3257 -1.399,2.3257 -0.7695,0 -2.3862,1.8937 -3.5926,4.2084 -3.0582,5.8671 -3.8826,20.1054 -1.7062,29.4659 0.8728,3.7541 1.9494,8.5763 2.3924,10.716 0.4489,2.1682 1.7279,4.4974 2.8893,5.2617 1.8644,1.2269 2.5225,1.0535 6.25,-1.6467 3.9176,-2.8379 4.1661,-3.3122 4.1661,-7.9526 0,-2.7141 -0.3971,-5.1801 -0.8825,-5.4801 -0.4853,-0.3 -2.0603,0.3811 -3.5,1.5136 l -2.6175,2.0589 0,-2.3508 c 0,-1.2929 1.575,-5.6372 3.5,-9.654 1.925,-4.0168 3.5,-7.7216 3.5,-8.2327 0,-0.5112 0.916,-2.8782 2.0356,-5.2599 1.6242,-3.4554 1.8263,-4.8809 1,-7.0542 -0.5696,-1.4981 -1.0356,-4.1274 -1.0356,-5.843 0,-1.7157 -0.7387,-5.752 -1.6416,-8.9698 -1.6083,-5.732 -1.5981,-5.8967 0.5,-8.1301 1.1779,-1.2537 2.1416,-2.9829 2.1416,-3.8427 0,-2.065 -2.6162,-4.1692 -4.3544,-3.5022 -0.7589,0.2912 -3.6979,-0.5799 -6.5311,-1.9358 -2.8332,-1.3559 -5.5382,-2.2261 -6.0111,-1.9338 -0.4729,0.2922 -1.1096,-0.7172 -1.4148,-2.2432 -0.3826,-1.9131 -1.5848,-3.2276 -3.8718,-4.2338 -3.1632,-1.3916 -3.3477,-1.7716 -3.984,-8.2071 -0.4208,-4.2565 -1.4831,-8.0681 -2.877,-10.3235 -1.8225,-2.949 -2.0161,-4.0009 -1.1043,-6.0021 1.132,-2.4844 3.5405,-3.2192 4.6529,-1.4194 0.3423,0.5539 -0.081,1.277 -0.941,1.607 -2.7247,1.0456 -1.7971,3.386 1.342,3.386 1.8558,0 4.4187,-1.2644 7.0946,-3.5 4.248,-3.5492 8,-4.5768 8,-2.1912 0,0.7199 0.6414,2.1824 1.4253,3.25 1.3796,1.8789 1.4578,1.8561 2.4383,-0.7117 1.6094,-4.2145 2.8015,-4.1971 7.4733,0.1093 5.0711,4.6744 6.9876,5.0041 9.2262,1.5875 1.8071,-2.7579 1.2177,-4.5439 -1.4997,-4.5439 -3.357,0 -4.3052,-2.5399 -3.9053,-10.4599 l 0.3782,-7.4896 -4.0181,0.6118 c -2.21,0.3365 -4.9182,1.0908 -6.0182,1.6762 -1.1,0.5854 -3.575,1.1427 -5.5,1.2385 -1.925,0.096 -5.075,0.7484 -7,1.4502 -1.925,0.7018 -3.95,1.4272 -4.5,1.6121 -0.55,0.1849 -3.8682,2.3703 -7.3737,4.8564 -3.6914,2.618 -8.0106,4.7819 -10.2635,5.1422 -2.9955,0.479 -4.0267,1.167 -4.4848,2.992 -0.3271,1.3035 -1.171,2.3701 -1.8751,2.3701 -1.8025,0 -2.6912,5.8566 -1.5124,9.967 0.5869,2.0462 0.6235,3.8189 0.09,4.3524 -0.8778,0.8778 -5.692,-1.2777 -9.25229,-4.1426 -1.449,-1.166 -1.8883,-1.0147 -3.2976,1.1362 -1.6731,2.5533 -2.0313,4.7503 -1.7138,10.5085 0.1655,2.9996 0.4498,3.2904 2.9332,3 2.2276,-0.2605 2.6883,0.037 2.4249,1.5647 -0.2521,1.4623 0.1309,1.7671 1.7039,1.3557 1.76629,-0.4619 1.95639,-0.1679 1.46859,2.2709 -0.4505,2.2529 -0.05,3.136 2.0462,4.5094 2.8814,1.888 3.4833,4.4778 1.0407,4.4778 -3.0833,0 -5.59619,-2.2119 -7.46449,-6.5704 -1.5778,-3.6809 -2.3563,-4.4296 -4.6055,-4.4296 -1.4888,0 -3.5727,-0.7836 -4.6309,-1.7414 -1.8394,-1.6645 -2.0081,-1.6376 -3.8288,0.6108 -2.2668,2.7995 -2.4226,5.9035 -0.4837,9.6407 0.7814,1.5063 1.1833,3.3577 0.893,4.1143 -0.3451,0.8992 0.2018,1.3756 1.5791,1.3756 1.1589,0 2.107,0.45 2.107,1 0,2.4817 -4.6616,0.6673 -8.4538,-3.2905 l -4.111,-4.2905 1.8835,-3.225 c 2.2906,-3.922 1.6168,-6.194 -1.837,-6.194 -2.4687,0 -8.4817,2.5129 -8.4817,3.5447 0,0.2713 1.2375,0.2059 2.75,-0.1453 l 2.75,-0.6387 -2.7435,2.8404 c -2.605,2.697 -2.8312,2.7527 -4.4805,1.1035 -1.4382,-1.4383 -1.5253,-2.0758 -0.5065,-3.7072 1.7531,-2.8071 1.6167,-2.9974 -2.1471,-2.9974 -1.8888,0 -3.9681,-0.7117 -4.7175,-1.6147 -1.1504,-1.386 -0.9969,-1.8924 1.0842,-3.5776 2.2499,-1.8218 2.5124,-1.8423 3.651,-0.2852 1.314,1.797 3.3599,1.213 3.3599,-0.9591 0,-0.7252 -0.6815,-1.8842 -1.5145,-2.5755 -1.2435,-1.032 -2.423,-0.7855 -6.5923,1.3776 -2.7928,1.4489 -6.6408,2.6345 -8.5512,2.6345 -4.4662,0 -7.342,1.5618 -7.342,3.9874 0,1.6532 0.8603,1.9581 6.25,2.2148 l 6.25,0.2978 -3.7506,1.7971 c -2.0628,0.9885 -5.975,2.0607 -8.6939,2.3827 -5.9435,0.7039 -7.46171,2.934 -3.0454,4.4735 4.169,1.4533 3.7277,3.5709 -1.0101,4.8467 -4.22491,1.1376 -4.74991,1.8501 -2.8,3.8 1.8221,1.8221 5.2135,1.4544 11.9923,-1.3 3.3839,-1.375 6.9749,-2.5 7.9801,-2.5 1.0052,0 1.8276,-0.675 1.8276,-1.5 0,-1.3915 -1.7339,-1.9663 -4.75,-1.5747 -1.9423,0.2522 -1.4715,-1.7364 0.6843,-2.8902 1.0638,-0.5693 3.3296,-1.0351 5.0351,-1.0351 2.8335,0 3.0047,0.1798 1.9848,2.0856 -1.3004,2.4297 -0.4622,3.8224 1.2625,2.0977 1.6481,-1.6482 2.8336,-1.4781 2.1482,0.3082 -0.8359,2.1783 2.3094,2.9991 5.4489,1.422 1.4774,-0.7422 3.0237,-1.5138 3.4362,-1.7148 0.4125,-0.201 0.75,2.3765 0.75,5.7277 0,4.8556 0.4062,6.4409 2,7.8056 1.1,0.9418 2,2.5431 2,3.5583 0,1.7434 -0.1611,1.7311 -2.9044,-0.2223 -1.5974,-1.1374 -3.3974,-2.068 -4,-2.068 -2.8002,0 -0.019,7.1677 3.5149,9.0591 3.1211,1.6704 3.2237,4.3634 0.1395,3.6633 -9.5373,-2.1648 -8.75,-2.2713 -8.75,1.1839 0,2.1311 0.5685,3.3341 1.75,3.7035 0.9625,0.3009 2.9444,1.1867 4.4043,1.9686 3.2787,1.756 8.9988,1.8472 10.7581,0.1716 1.0707,-1.0198 1.1872,-0.8356 0.6326,1 -0.552,1.8269 -0.2911,2.25 1.3876,2.25 2.8061,0 2.5984,1.4371 -0.5675,3.9274 -3.6012,2.8327 -5.3094,2.6012 -5.992,-0.8121 -0.52,-2.6001 -1.0741,-2.9507 -5.6153,-3.5531 -2.771,-0.3676 -6.3565,-0.932 -7.9678,-1.2542 l -2.9296,-0.586 2.0661,3.389 c 1.1363,1.8639 2.0677,4.5567 2.0698,5.984 0,2.6849 2.0365,5.0372 5.5037,6.3694 1.3066,0.502 1.558,0.9332 0.7251,1.2436 -0.7011,0.2614 -1.9223,2.0247 -2.7136,3.9186 -0.7913,1.8939 -2.1301,4.1348 -2.9751,4.9798 -0.845,0.845 -1.5364,2.8543 -1.5364,4.465 0,1.6107 -0.437,2.9286 -0.9712,2.9286 -1.1737,0 -4.533,11.0451 -6.0822,19.9976 -1.5432,8.9177 -2.5247,10.4039 -4.1291,6.2524 -0.6908,-1.7875 -1.8323,-3.25 -2.5367,-3.25 -1.7708,0 -1.6085,-0.7319 0.7156,-3.2265 2.8042,-3.01 10.0036,-21.8869 10.0036,-26.2296 0,-4.1426 -2.5126,-5.931 -4.5049,-3.2064 -0.6685,0.9143 -2.1239,1.6625 -3.234,1.6625 -1.3058,0 -2.463,1.0732 -3.2776,3.0398 -1.4655,3.5379 -4.5342,5.9602 -7.551,5.9602 -1.1674,0 -2.9798,0.9598 -4.0275,2.1329 -1.8885,2.1143 -1.8855,2.1268 0.345,1.4326 1.7683,-0.5504 2.2453,-0.3112 2.228,1.1171 -0.03,2.5115 -3.5776,10.1037 -6.52831,13.9722 -1.3473,1.7664 -2.4497,4.0795 -2.4497,5.1401 0,1.0606 -1.3558,4.9186 -3.0129,8.5733 -1.6571,3.6546 -4.6457,13.7294 -6.6412,22.3883 -1.9956,8.6589 -3.9846,16.1408 -4.4201,16.6264 -1.3588,1.5155 0.2701,-14.7289 1.7758,-17.7084 0.7853,-1.554 1.8361,-5.379 2.3352,-8.5 0.954,-5.9661 5.7418,-18.1457 11.5246,-29.3174 3.58881,-6.933 4.25721,-9.8571 2.25311,-9.8571 -1.82331,0 -5.81451,4.1424 -5.81451,6.0347 0,1.797 -4.6501,9.2401 -6.1217,9.7986 -0.4831,0.1833 -0.8783,1.6458 -0.8783,3.25 0,2.195 -0.4684,2.9167 -1.893,2.9167 -2.6341,0 -3.107,1.8472 -3.107,12.1366 0,7.1006 -0.4531,9.9529 -2.1712,13.6682 -1.9202,4.1524 -2.282,7.4116 -3.1304,28.1952 -0.9576,23.461 -0.9551,23.5116 1.4618,30.5 l 2.421,7 6.9495,0.7718 c 9.0315,1.0031 12.10121,-0.1912 13.45971,-5.2363 0.552,-2.05 2.355,-5.5928 4.0066,-7.8728 1.6517,-2.28 3.003,-5.0493 3.003,-6.1541 0,-1.1047 0.3375,-1.9554 0.75,-1.8902 2.2011,0.3475 3.1263,-0.2773 2.5673,-1.7338 -0.4928,-1.2844 -0.179,-1.4755 1.5314,-0.9327 1.7282,0.5485 2.1513,0.2762 2.1513,-1.3846 0,-1.171 0.6504,-2.0673 1.5,-2.0673 1.6724,0 2.123,-4.9447 0.597,-6.55 -1.2791,-1.3456 -1.9253,-7.9198 -3.1897,-32.45 -0.6095,-11.825 -1.2955,-21.695 -1.5244,-21.9334 -1.3514,-1.4069 -2.8564,2.9609 -3.3332,9.6735 -0.4773,6.72 -0.8132,7.788 -2.5497,8.1073 -1.1,0.2023 -2.5625,0.8244 -3.25,1.3826 -1.8525,1.504 -1.5444,4.77 0.45,4.77 1.2294,0 1.3975,0.3024 0.6074,1.0926 -1.3233,1.3233 -3.853,0.1385 -6.94101,-3.2508 -2.7855,-3.0572 -4.4147,-14.1814 -1.9379,-13.2309 1.1742,0.4506 1.5715,-0.039 1.5715,-1.9346 0,-2.4728 3.81201,-9.5495 5.18961,-9.634 0.3793,-0.023 0.8293,1.5776 1,3.5574 l 0.3104,3.5998 2.75,-2.1723 c 2.1644,-1.7098 2.75,-3.0087 2.75,-6.0998 0,-4.8212 1.1929,-4.9346 5.5956,-0.5319 3.3451,3.3451 3.3855,3.4901 2.7193,9.75 -0.372,3.495 -0.7075,10.6295 -0.7456,15.8545 -0.063,8.6247 0.097,9.4717 1.7356,9.1935 1.6907,-0.287 1.7061,-0.1156 0.2442,2.7115 -1.3965,2.7006 -1.4071,3.8896 -0.1004,11.3065 2.309,13.1056 3.2321,16.8693 4.4317,18.0689 0.6158,0.6158 1.1196,2.3301 1.1196,3.8095 0,1.6266 1.8441,5.2044 4.6644,9.05 6.5263,8.8987 22.6236,24.6488 26.0359,25.4744 1.5398,0.3725 3.9247,1.4591 5.2997,2.4147 3.1534,2.1915 5.24699,2.71 11.52749,2.855 3.0276,0.07 5.8812,-0.482 7.1735,-1.3871 z m -9.9724,-15.6289 c -1.9105,-1.0691 -2.42,-5.2651 -0.5642,-4.6465 1.6905,0.5635 4.0991,4.4976 3.1229,5.1009 -0.4565,0.2822 -1.6079,0.078 -2.5587,-0.4544 z m -16.72859,-10.309 c 0,-0.8574 0.45,-1.559 1,-1.559 0.55,0 1,0.4235 1,0.941 0,0.5175 -0.45,1.2191 -1,1.559 -0.55,0.3399 -1,-0.083 -1,-0.941 z m -2.9157,-5.809 c -0.4681,-1.2375 -0.6895,-2.4266 -0.4919,-2.6425 0.6583,-0.7192 3.4076,2.1166 3.4076,3.515 0,2.19 -1.9814,1.5971 -2.9157,-0.8725 z m -5.4448,-4.4438 c -1.1262,-1.1262 -0.6859,-2.3062 0.8605,-2.3062 0.825,0 1.5,0.4235 1.5,0.941 0,1.261 -1.5616,2.1641 -2.3605,1.3652 z m 21.02719,-1.9729 c -0.36669,-0.3666 -0.66669,-1.2825 -0.66669,-2.0351 0,-1.0587 0.4529,-1.1262 1.99999,-0.2982 1.1,0.5887 2,1.5045 2,2.0352 0,1.0971 -2.3263,1.3051 -3.3333,0.2981 z m -7.66669,-8.8923 c 0,-1.4514 0.4328,-2.2915 1,-1.941 0.55,0.3399 1,1.4915 1,2.559 0,1.0676 -0.45,1.941 -1,1.941 -0.55,0 -1,-1.1515 -1,-2.559 z m -50.9847,0.368 c -0.01,-0.93 0.4347,-1.9691 0.9847,-2.309 1.2656,-0.7822 1.2656,0.5416 0,2.5 -0.8354,1.2927 -0.9715,1.2663 -0.9847,-0.191 z m 32.6202,-1.2426 c -1.8533,-2.8284 -2.1642,-5.0112 -0.5738,-4.0283 1.1839,0.7317 3.215,5.5186 2.6017,6.1318 -0.2158,0.2159 -1.1284,-0.7307 -2.0279,-2.1035 z m 30.42929,-6.304 c -1.6945,-2.0556 -3.8134,-5.6556 -4.70869,-8 -0.8953,-2.3443 -2.0167,-4.2624 -2.492,-4.2624 -0.4752,0 -0.8641,-0.6609 -0.8641,-1.4686 0,-2.3047 2.2472,-0.7959 5.24049,3.5186 1.5073,2.1725 3.4039,3.95 4.2148,3.95 1.9468,0 3.5447,3.1259 3.5447,6.9343 0,4.0302 -1.1933,3.8678 -4.9352,-0.6719 z m -36.06479,-6.7624 c 0,-4.5841 0.2673,-5.6327 1.1982,-4.7017 1.4701,1.4701 1.3999,8.0036 -0.1022,9.5057 -0.7947,0.7947 -1.096,-0.526 -1.096,-4.804 z m -29.7818,0.3455 c 0.519,-1.5571 2.7562,-1.8298 2.8346,-0.3455 0.029,0.55 -0.6978,1.1555 -1.6151,1.3455 -1.0428,0.216 -1.4999,-0.1589 -1.2195,-1 z m -15.02651,-0.9205 c 0.1971,-0.5912 0.7858,-1.075 1.3083,-1.075 0.5225,0 1.1112,0.4838 1.3083,1.075 0.1971,0.5913 -0.3916,1.075 -1.3083,1.075 -0.9167,0 -1.5054,-0.4837 -1.3083,-1.075 z m 62.96621,-1.925 c 0,-1.375 0.227,-1.9375 0.5044,-1.25 0.2774,0.6875 0.2774,1.8125 0,2.5 -0.2774,0.6875 -0.5044,0.125 -0.5044,-1.25 z m -61.07901,-4.5833 c 0.048,-1.165 0.285,-1.4019 0.6042,-0.6042 0.2889,0.7219 0.2534,1.5844 -0.079,1.9167 -0.3323,0.3323 -0.5687,-0.2584 -0.5253,-1.3125 z m 33.65511,-1.0279 c -0.678,-3.5466 0.2473,-7.0251 1.3894,-5.2233 1.118,1.7636 1.1119,6.571 -0.01,7.2638 -0.4871,0.3011 -1.1082,-0.6171 -1.3803,-2.0405 z m 24.3449,-2.9721 c 0.048,-1.165 0.285,-1.4019 0.6042,-0.6042 0.2889,0.7219 0.2534,1.5844 -0.079,1.9167 -0.3323,0.3323 -0.5687,-0.2584 -0.5253,-1.3125 z m -52.68981,-0.3964 c -2.5922,-1.0474 -3.3406,-2.8231 -2.6695,-6.3337 0.9327,-4.8791 2.8699,-2.8202 2.3448,2.4921 -0.1123,1.1355 0.7153,1.7826 2.5577,2 1.49801,0.1767 2.90841,0.8838 3.13411,1.5713 0.466,1.419 -2.19291,1.5529 -5.36711,0.2703 z m 81.9384,-6.8679 c -3.4514,-7.8054 -3.1648,-8.4111 1.0811,-2.2843 1.7663,2.5489 2.6257,4.9342 2.4163,6.7073 -0.2781,2.3552 -0.7819,1.718 -3.4974,-4.423 z m -53.49379,-1.4512 c -0.5877,-5.0337 0.2073,-11.7012 1.3952,-11.7012 0.6235,0 0.8418,2.1339 0.5627,5.5 -0.2509,3.025 -0.2155,5.5 0.079,5.5 0.2941,0 2.0119,-1.4317 3.8173,-3.1816 1.8055,-1.7499 3.504,-2.9603 3.7746,-2.6897 0.2705,0.2705 -1.6936,2.6445 -4.3647,5.2755 l -4.8566,4.7835 -0.407,-3.4865 z m -2.8019,-17.8679 c 0.03,-4.0773 0.1208,-4.2156 1.5377,-2.3405 1.7138,2.2677 1.5412,5.6494 -0.3195,6.2622 -0.874,0.2879 -1.2404,-0.8918 -1.2182,-3.9217 z m -16.3921,-11.679 c -1.5655,-1.7298 -1.5438,-2.0065 0.345,-4.4077 1.1084,-1.4091 2.0153,-2.8468 2.0153,-3.1948 0,-0.348 1.011,-2.077 2.2466,-3.8423 1.2357,-1.7652 2.3682,-3.4045 2.5167,-3.6428 0.1485,-0.2384 0.7996,0.096 1.4468,0.7434 0.9023,0.9023 0.561,1.8196 -1.4636,3.9333 -2.9959,3.1277 -6.1071,9.8641 -5.2193,11.3006 0.9823,1.5895 -0.1098,1.0747 -1.8875,-0.8897 z m 38.8603,-7.1543 c 0.9955,-1.1 2.1902,-2 2.655,-2 1.4981,0 0.8975,2.7659 -0.7368,3.393 -2.9836,1.145 -3.7267,0.6054 -1.9182,-1.393 z m 8.5062,-59.095 c -0.01,-4.2112 -2.7524,-7.3233 -5.5223,-6.2604 -1.4802,0.568 -1.7031,0.3017 -1.2376,-1.4783 0.3609,-1.3804 0.01,-2.4839 -0.9677,-3.0303 -1.0694,-0.5984 -1.1908,-1.0722 -0.4002,-1.5608 0.6244,-0.3859 2.4391,0.2268 4.0328,1.3616 3.2778,2.334 5.1665,2.5855 6.8409,0.9111 0.8695,-0.8695 1.4491,-0.5005 2.3625,1.5042 1.3773,3.023 0.6091,4.4934 -1.4534,2.7817 -1.126,-0.9345 -1.3058,-0.7255 -0.955,1.1097 0.2377,1.2436 -0.2711,3.61 -1.1308,5.2588 l -1.5631,2.9977 -0.01,-3.595 z m 28.29999,-62.6038 c -1.7035,-0.6141 -3.7447,-7.2627 -2.5855,-8.4219 1.2798,-1.2798 6.2793,2.7575 6.2793,5.0709 0,2.1367 -2.0082,3.9585 -3.6938,3.351 z m 36.7433,-21.4784 c -1.1156,-1.1975 -1.8467,-2.3589 -1.6246,-2.581 0.7137,-0.7137 4.3201,1.6514 4.9261,3.2304 0.8537,2.2248 -0.9553,1.8689 -3.3015,-0.6494 z m -114.36659,170.3793 c -1.6041,-1.7725 -1.5869,-1.979 0.309,-3.6948 2.5646,-2.3208 2.8917,-5.4834 0.3496,-3.3797 -2.3311,1.9291 -5.29341,8.8082 -5.31951,12.3532 l -0.022,2.9808 3.19101,-3.191 c 3.0318,-3.0318 3.1062,-3.2847 1.4919,-5.0685 z m 55.4884,-27.8571 c 2.3417,-2.1193 2.3101,-3.5993 -0.1241,-5.8022 -1.8893,-1.7099 -1.9736,-1.6743 -2.5929,1.095 -0.3521,1.5742 -0.8537,3.6497 -1.1146,4.6122 -0.6007,2.2157 1.4326,2.2661 3.8316,0.095 z m -6.7889,-11.9576 -0.6557,-2.6126 2.6678,1.7481 c 3.1081,2.0364 4.56,1.2352 2.8176,-1.5548 -0.6666,-1.0675 -1.2121,-2.6221 -1.2121,-3.4545 0,-2.1656 -1.0027,-1.8852 -4.1953,1.1735 -3.2364,3.1007 -3.5232,4.7951 -1.0547,6.2328 2.3911,1.3927 2.3712,1.4113 1.6324,-1.5325 z m -2.3519,-5.4443 c 1.47,-2.7469 -0.8427,-3.5754 -3.2527,-1.1653 -2.1761,2.1761 -1.6657,4.5002 0.782,3.5609 0.8227,-0.3157 1.9345,-1.3937 2.4707,-2.3956 z m 46.54299,-4.2579 c -2.9147,-3.8213 -3.2667,-5.6852 -1.0735,-5.6852 2.3868,0 1.7503,-1.6856 -1.5142,-4.0101 l -3.0142,-2.1463 1.1766,2.5824 c 1.3445,2.9509 0.2133,4.9714 -1.2847,2.2947 -1.4983,-2.6775 -2.8635,-1.071 -2.8635,3.3697 0,4.2403 2.379,6.428 4.138,3.8053 0.7423,-1.1068 1.49,-0.7001 3.6123,1.9646 3.4507,4.3328 4.2255,2.2856 0.8232,-2.1751 z m -66.23279,-12.6511 c -0.1895,-3.8681 -1.5816,-5.5394 -3.8796,-4.6575 -1.2607,0.4838 -1.504,1.3163 -0.9868,3.3771 1.4902,5.9373 5.1415,6.898 4.8664,1.2804 z m 69.65929,-48.4751 c 0,-0.7925 -0.359,-1.6628 -0.7977,-1.934 -1.2793,-0.7906 -3.5252,1.0435 -2.7714,2.2632 0.9922,1.6054 3.5691,1.3678 3.5691,-0.3292 z m 21.7057,-11.5766 c -0.2902,-1.1097 0.1394,-2.6847 0.9548,-3.5 1.7363,-1.7364 0.1644,-1.9942 -2.7262,-0.4472 -2.168,1.1603 -2.6027,4.5284 -0.6843,5.3025 2.3994,0.9682 2.9795,0.648 2.4557,-1.3553 z m -82.74559,-11.5304 c -1.3654,-1.6453 -4.9601,-1.9728 -4.9601,-0.452 0,1.8789 0.4407,2.5001 1.587,2.2368 0.6304,-0.1447 1.7687,0.4878 2.5296,1.4057 1.29,1.5563 1.4058,1.554 1.716,-0.035 0.1829,-0.937 -0.2097,-2.3571 -0.8725,-3.1557 z m 71.61349,-1.8659 c 1.1103,-0.7776 3.3479,-1.5651 4.9725,-1.75 5.4906,-0.6247 9.6344,-13.6784 4.9168,-15.4887 -0.8661,-0.3323 -3.1308,0.9268 -5.4731,3.0428 -4.409,3.9833 -4.2965,3.9484 -11.7398,3.6415 l -5.25,-0.2165 0,3.4576 c 0,7.1046 7.0321,11.1947 12.5736,7.3133 z m 18.3912,-1.5203 c 1.504,-2.8102 1.3451,-9.3342 -0.2148,-8.822 -0.6875,0.2257 -1.4015,1.7257 -1.5868,3.3333 -0.1852,1.6076 -0.9976,3.2967 -1.8054,3.7536 -1.1461,0.6483 -1.2099,1.1425 -0.2908,2.25 1.598,1.9255 2.6674,1.7842 3.8978,-0.5149 z m -80.96479,-0.8658 c 0,-0.44 -0.5484,-1.3484 -1.2187,-2.0187 -0.9584,-0.9584 -0.4776,-1.0772 2.25,-0.556 l 3.4687,0.6628 -2.1834,-2.394 c -1.2009,-1.3168 -2.6436,-3.6089 -3.2061,-5.0937 -0.7698,-2.0321 -2.0845,-2.9716 -5.3166,-3.7994 -6.2552,-1.602 -7.1518,-1.9764 -6.4397,-2.6886 0.9363,-0.9362 8.6238,-0.4747 12.2993,0.7383 3.5149,1.16 5.0059,3.4823 2.7834,4.3352 -3.1067,1.1921 -1.3301,2.7214 2.8131,2.4216 3.764,-0.2723 4.2852,-0.6115 4.5576,-2.9658 0.2598,-2.2454 -0.533,-3.2162 -5.1035,-6.25 -2.9761,-1.9754 -5.9013,-3.5917 -6.5004,-3.5917 -0.5992,0 -2.6991,-0.9497 -4.6665,-2.1105 -2.9117,-1.718 -4.4501,-1.9797 -8.2697,-1.4069 -11.2421,1.6859 -17.6653,7.1262 -17.1321,14.5105 0.2177,3.0155 -0.2708,4.5222 -2.0964,6.4654 -1.3091,1.3935 -2.099,2.8148 -1.7553,3.1585 0.9323,0.9323 11.5866,-0.5981 12.3098,-1.7682 0.3437,-0.5562 -0.5492,-2.2369 -1.9843,-3.7348 -3.2547,-3.3972 -3.3086,-4.3304 -0.1812,-3.1414 1.3353,0.5077 5.4978,0.6771 9.25,0.3764 6.5419,-0.5243 12.322,0.618 12.322,2.4351 0,0.4585 -0.6476,1.7072 -1.4391,2.7748 -1.2152,1.6392 -1.7525,1.7499 -3.4536,0.7116 -1.9344,-1.1806 -4.1615,0.01 -2.7185,1.4517 1.3927,1.3926 11.6112,2.6932 11.6112,1.4778 z m -24,-15.2 c 0,-0.55 0.9,-1 2,-1 1.1,0 2,0.45 2,1 0,0.55 -0.9,1 -2,1 -1.1,0 -2,-0.45 -2,-1 z m 9.0201,11.4758 c 0.6957,-0.8382 1.0097,-1.7793 0.6978,-2.0913 -0.9285,-0.9284 -4.4891,0.5768 -5.0941,2.1536 -0.7616,1.9846 2.7387,1.935 4.3963,-0.062 z"
               style="fill:#000000" />
          </g>
        </g>
        <g
           transform="matrix(3.3319851,0,0,3.116938,-1377.7541,-637.92241)"
           inkscape:label="Layer 1"
           id="layer1-2">
          <g
             id="g10634">
            <path
               d="m 645.93,303.46 c 0,101.47 -99.418,183.73 -222.06,183.73 -122.642,0 -218.07,-82.353 -222.06,-183.73 -2.8469,-72.489 43.208,-69.206 228.7,-66.765 174.79,2.3004 222.06,-3.6545 215.41,66.765 z"
               style="color:#000000;opacity:0.46600001;fill:#dfeaff;fill-opacity:1"
               sodipodi:nodetypes="csssc"
               id="path9996"
               inkscape:connector-curvature="0" />
            <path
               d="m 520.73,138.06 c 17.27,-2.4132 27.618,-5.4519 27.618,-8.7812 m -0.0658,0.14363 c 1.0534,-6.7875 -56.495,-14.237 -126.28,-14.237 -69.782,0 -126.34,6.3008 -126.34,14.094 m 0.7146,23.54 c -41.992,20.823 -94.569,78.204 -94.569,150.65 0,101.47 99.42,183.72 222.06,183.72 122.64,0 222.06,-82.246 222.06,-183.72 0,-72.746 -48.645,-134.31 -97.205,-152.8 m -252.98,-21.68 c -0.32919,4.2954 10.257,6.9759 29.203,9.4435"
               style="color:#000000;fill:none;stroke:#000000;stroke-width:3;stroke-linejoin:round"
               sodipodi:nodetypes="csccscsssccc"
               id="path9996-4"
               inkscape:connector-curvature="0" />
            <path
               d="m 639.59,275.23 c -6.7619,21.197 -84.993,32.617 -207.14,31.912 -144.12,-0.83207 -214.49,-18.496 -220.49,-33.529 -6.0338,-15.138 12.748,-43.922 217.34,-36.465 173.51,-0.1364 209.85,12.519 210.28,38.082 z"
               style="color:#000000;fill:none;stroke:#ccdbf4;stroke-width:3;stroke-linecap:round;stroke-linejoin:round"
               sodipodi:nodetypes="csscc"
               id="path10531"
               inkscape:connector-curvature="0" />
            <ellipse
               transform="matrix(0.91677,0,0,1.4583,55.667,-213.43)"
               style="color:#000000;opacity:0.34299999;fill:url(#radialGradient11954);fill-opacity:1"
               id="path10555"
               cx="403.10251"
               cy="464.16159"
               rx="104.88892"
               ry="16.453163" />
            <path
               d="m 315,463.94 c 0,0 -25.159,20.969 -17.367,26.953 44.596,34.25 211.58,35.297 245.11,0.68555 6.5003,-6.7102 -15.558,-25.582 -15.558,-25.582"
               style="fill:none;stroke:#000000;stroke-width:3"
               sodipodi:nodetypes="cssc"
               id="path10565"
               inkscape:connector-curvature="0" />
            <path
               d="m 305.03,485.58 c 17.421,16.13 99.895,28.48 134.04,24.969"
               style="fill:none;stroke:#000000;stroke-width:1px"
               sodipodi:nodetypes="cc"
               id="path10567"
               inkscape:connector-curvature="0" />
            <path
               d="m 324.56,138.39 c 65.109,6.5191 131.97,5.4138 197.08,-0.44966"
               style="fill:none;stroke:#000000;stroke-width:3"
               sodipodi:nodetypes="cc"
               id="path10572"
               inkscape:connector-curvature="0" />
            <path
               d="m 547.83,130.63 c -3.8438,6.5287 -4.9491,17.366 1.6145,20.376"
               style="fill:none;stroke:#000000;stroke-width:3"
               sodipodi:nodetypes="cc"
               id="path10574"
               inkscape:connector-curvature="0" />
            <path
               d="m 296.21,130.69 c 3.8438,6.5287 4.8174,19.777 -0.75863,22.643"
               style="fill:none;stroke:#000000;stroke-width:3"
               sodipodi:nodetypes="cc"
               id="path10574-2"
               inkscape:connector-curvature="0" />
            <path
               d="m 305.09,151.67 c 74.185,11.006 133.53,5.8226 195.33,3.3187"
               style="fill:none;stroke:#000000;stroke-width:1px"
               sodipodi:nodetypes="cc"
               id="path10598"
               inkscape:connector-curvature="0" />
            <path
               transform="translate(200.31,113.69)"
               style="opacity:0.61199999;fill:url(#linearGradient10632);filter:url(#filter11964)"
               sodipodi:nodetypes="cssss"
               d="m 16.896,218.09 c 0.1075,33.857 30.184,63.629 45.995,81.664 9.9592,11.36 44.695,12.17 37.547,1.8773 -20.417,-29.399 -42.159,-57.609 -46.933,-80.725 -2.4755,-11.986 -36.647,-15.055 -36.608,-2.816 z"
               id="path10624"
               inkscape:connector-curvature="0" />
          </g>
        </g>
      </g>
    </g>
  </g>
</svg>
